<mxfile host="Electron" modified="2024-04-18T06:30:51.667Z" agent="Mozilla/5.0 (Windows NT 10.0; Win64; x64) AppleWebKit/537.36 (KHTML, like Gecko) draw.io/24.2.5 Chrome/120.0.6099.109 Electron/28.1.0 Safari/537.36" etag="74ZIlFXIlU4BqsjqtYwh" version="24.2.5" type="device">
  <diagram name="Page-1" id="BGD2CxzFeFaY1B96mk9h">
    <mxGraphModel dx="2595" dy="644" grid="1" gridSize="10" guides="1" tooltips="1" connect="1" arrows="1" fold="1" page="1" pageScale="1" pageWidth="1654" pageHeight="1169" math="0" shadow="0">
      <root>
        <mxCell id="0" />
        <mxCell id="1" parent="0" />
        <mxCell id="CCKKKjc9l-LzxRETcx_5-4" value="" style="edgeStyle=orthogonalEdgeStyle;rounded=0;orthogonalLoop=1;jettySize=auto;html=1;" parent="1" source="CCKKKjc9l-LzxRETcx_5-1" target="CCKKKjc9l-LzxRETcx_5-3" edge="1">
          <mxGeometry relative="1" as="geometry" />
        </mxCell>
        <mxCell id="CCKKKjc9l-LzxRETcx_5-1" value="&lt;font style=&quot;font-size: 18px;&quot;&gt;Sun&lt;/font&gt;" style="ellipse;whiteSpace=wrap;html=1;aspect=fixed;" parent="1" vertex="1">
          <mxGeometry x="-10" y="50" width="80" height="80" as="geometry" />
        </mxCell>
        <mxCell id="CCKKKjc9l-LzxRETcx_5-7" value="" style="edgeStyle=orthogonalEdgeStyle;rounded=0;orthogonalLoop=1;jettySize=auto;html=1;" parent="1" source="CCKKKjc9l-LzxRETcx_5-3" target="CCKKKjc9l-LzxRETcx_5-6" edge="1">
          <mxGeometry relative="1" as="geometry" />
        </mxCell>
        <mxCell id="CCKKKjc9l-LzxRETcx_5-3" value="" style="verticalLabelPosition=bottom;shadow=0;dashed=0;align=center;html=1;verticalAlign=top;shape=mxgraph.electrical.opto_electronics.solar_cell;pointerEvents=1;" parent="1" vertex="1">
          <mxGeometry x="40" y="200" width="100" height="70" as="geometry" />
        </mxCell>
        <mxCell id="CCKKKjc9l-LzxRETcx_5-5" value="Green energy generation" style="text;html=1;align=center;verticalAlign=middle;whiteSpace=wrap;rounded=0;" parent="1" vertex="1">
          <mxGeometry x="20" y="265" width="140" height="30" as="geometry" />
        </mxCell>
        <mxCell id="CCKKKjc9l-LzxRETcx_5-6" value="" style="html=1;verticalLabelPosition=bottom;align=center;labelBackgroundColor=#ffffff;verticalAlign=top;strokeWidth=2;strokeColor=#0080F0;shadow=0;dashed=0;shape=mxgraph.ios7.icons.battery;" parent="1" vertex="1">
          <mxGeometry x="210" y="212.25" width="70" height="45.5" as="geometry" />
        </mxCell>
        <mxCell id="CCKKKjc9l-LzxRETcx_5-8" value="Battery system&lt;div&gt;&lt;br&gt;&lt;/div&gt;" style="text;html=1;align=center;verticalAlign=middle;whiteSpace=wrap;rounded=0;" parent="1" vertex="1">
          <mxGeometry x="190" y="274" width="110" height="30" as="geometry" />
        </mxCell>
        <mxCell id="CCKKKjc9l-LzxRETcx_5-15" value="" style="edgeStyle=orthogonalEdgeStyle;rounded=0;orthogonalLoop=1;jettySize=auto;html=1;" parent="1" source="CCKKKjc9l-LzxRETcx_5-9" target="CCKKKjc9l-LzxRETcx_5-14" edge="1">
          <mxGeometry relative="1" as="geometry" />
        </mxCell>
        <mxCell id="CCKKKjc9l-LzxRETcx_5-9" value="" style="verticalLabelPosition=bottom;shadow=0;dashed=0;align=center;html=1;verticalAlign=top;shape=mxgraph.electrical.logic_gates.inverter_2" parent="1" vertex="1">
          <mxGeometry x="350" y="205" width="100" height="60" as="geometry" />
        </mxCell>
        <mxCell id="CCKKKjc9l-LzxRETcx_5-11" value="Inverter&lt;div&gt;&lt;br&gt;&lt;/div&gt;" style="text;html=1;align=center;verticalAlign=middle;whiteSpace=wrap;rounded=0;" parent="1" vertex="1">
          <mxGeometry x="370" y="274" width="60" height="30" as="geometry" />
        </mxCell>
        <mxCell id="CCKKKjc9l-LzxRETcx_5-18" value="" style="edgeStyle=orthogonalEdgeStyle;rounded=0;orthogonalLoop=1;jettySize=auto;html=1;" parent="1" source="CCKKKjc9l-LzxRETcx_5-14" target="CCKKKjc9l-LzxRETcx_5-17" edge="1">
          <mxGeometry relative="1" as="geometry" />
        </mxCell>
        <mxCell id="CCKKKjc9l-LzxRETcx_5-14" value="" style="outlineConnect=0;dashed=0;verticalLabelPosition=bottom;verticalAlign=top;align=center;html=1;shape=mxgraph.aws3.management_console;fillColor=#F58534;gradientColor=none;" parent="1" vertex="1">
          <mxGeometry x="530" y="203.5" width="63" height="63" as="geometry" />
        </mxCell>
        <mxCell id="CCKKKjc9l-LzxRETcx_5-16" value="Battery management system" style="text;html=1;align=center;verticalAlign=middle;whiteSpace=wrap;rounded=0;" parent="1" vertex="1">
          <mxGeometry x="491.5" y="274" width="140" height="30" as="geometry" />
        </mxCell>
        <mxCell id="CCKKKjc9l-LzxRETcx_5-21" value="" style="edgeStyle=orthogonalEdgeStyle;rounded=0;orthogonalLoop=1;jettySize=auto;html=1;" parent="1" source="CCKKKjc9l-LzxRETcx_5-17" target="CCKKKjc9l-LzxRETcx_5-20" edge="1">
          <mxGeometry relative="1" as="geometry" />
        </mxCell>
        <mxCell id="CCKKKjc9l-LzxRETcx_5-17" value="" style="sketch=0;outlineConnect=0;fontColor=#232F3E;gradientColor=none;fillColor=#7AA116;strokeColor=none;dashed=0;verticalLabelPosition=bottom;verticalAlign=top;align=center;html=1;fontSize=12;fontStyle=0;aspect=fixed;pointerEvents=1;shape=mxgraph.aws4.iot_thing_temperature_sensor;" parent="1" vertex="1">
          <mxGeometry x="682" y="196" width="78" height="78" as="geometry" />
        </mxCell>
        <mxCell id="CCKKKjc9l-LzxRETcx_5-19" value="Environmental controller" style="text;html=1;align=center;verticalAlign=middle;whiteSpace=wrap;rounded=0;" parent="1" vertex="1">
          <mxGeometry x="760" y="220" width="100" height="30" as="geometry" />
        </mxCell>
        <mxCell id="CCKKKjc9l-LzxRETcx_5-24" value="" style="edgeStyle=orthogonalEdgeStyle;rounded=0;orthogonalLoop=1;jettySize=auto;html=1;" parent="1" source="CCKKKjc9l-LzxRETcx_5-20" target="CCKKKjc9l-LzxRETcx_5-23" edge="1">
          <mxGeometry relative="1" as="geometry" />
        </mxCell>
        <mxCell id="CCKKKjc9l-LzxRETcx_5-20" value="" style="sketch=0;outlineConnect=0;fontColor=#232F3E;gradientColor=none;fillColor=#7AA116;strokeColor=none;dashed=0;verticalLabelPosition=bottom;verticalAlign=top;align=center;html=1;fontSize=12;fontStyle=0;aspect=fixed;pointerEvents=1;shape=mxgraph.aws4.iot_thing_plc;" parent="1" vertex="1">
          <mxGeometry x="682" y="360" width="78" height="78" as="geometry" />
        </mxCell>
        <mxCell id="CCKKKjc9l-LzxRETcx_5-22" value="Operational controller" style="text;html=1;align=center;verticalAlign=middle;whiteSpace=wrap;rounded=0;" parent="1" vertex="1">
          <mxGeometry x="760" y="384" width="100" height="30" as="geometry" />
        </mxCell>
        <mxCell id="CCKKKjc9l-LzxRETcx_5-27" value="" style="edgeStyle=orthogonalEdgeStyle;rounded=0;orthogonalLoop=1;jettySize=auto;html=1;" parent="1" source="CCKKKjc9l-LzxRETcx_5-23" target="CCKKKjc9l-LzxRETcx_5-26" edge="1">
          <mxGeometry relative="1" as="geometry" />
        </mxCell>
        <mxCell id="CCKKKjc9l-LzxRETcx_5-23" value="" style="sketch=0;points=[[0,0,0],[0.25,0,0],[0.5,0,0],[0.75,0,0],[1,0,0],[0,1,0],[0.25,1,0],[0.5,1,0],[0.75,1,0],[1,1,0],[0,0.25,0],[0,0.5,0],[0,0.75,0],[1,0.25,0],[1,0.5,0],[1,0.75,0]];outlineConnect=0;fontColor=#232F3E;fillColor=#01A88D;strokeColor=#ffffff;dashed=0;verticalLabelPosition=bottom;verticalAlign=top;align=center;html=1;fontSize=12;fontStyle=0;aspect=fixed;shape=mxgraph.aws4.resourceIcon;resIcon=mxgraph.aws4.lookout_for_equipment;" parent="1" vertex="1">
          <mxGeometry x="521" y="360" width="78" height="78" as="geometry" />
        </mxCell>
        <mxCell id="CCKKKjc9l-LzxRETcx_5-25" value="Safety equipment" style="text;html=1;align=center;verticalAlign=middle;whiteSpace=wrap;rounded=0;" parent="1" vertex="1">
          <mxGeometry x="511.5" y="440" width="100" height="30" as="geometry" />
        </mxCell>
        <mxCell id="CCKKKjc9l-LzxRETcx_5-26" value="" style="verticalLabelPosition=bottom;aspect=fixed;html=1;shape=mxgraph.salesforce.energy;" parent="1" vertex="1">
          <mxGeometry x="377.5" y="369" width="45" height="60" as="geometry" />
        </mxCell>
        <mxCell id="CCKKKjc9l-LzxRETcx_5-29" value="" style="endArrow=classic;startArrow=classic;html=1;rounded=0;exitX=1.05;exitY=0.537;exitDx=0;exitDy=0;exitPerimeter=0;entryX=0;entryY=0.5;entryDx=0;entryDy=0;entryPerimeter=0;" parent="1" source="CCKKKjc9l-LzxRETcx_5-6" target="CCKKKjc9l-LzxRETcx_5-9" edge="1">
          <mxGeometry width="50" height="50" relative="1" as="geometry">
            <mxPoint x="460" y="360" as="sourcePoint" />
            <mxPoint x="510" y="310" as="targetPoint" />
          </mxGeometry>
        </mxCell>
        <mxCell id="CCKKKjc9l-LzxRETcx_5-30" value="Household energy" style="text;html=1;align=center;verticalAlign=middle;whiteSpace=wrap;rounded=0;" parent="1" vertex="1">
          <mxGeometry x="340" y="438" width="120" height="30" as="geometry" />
        </mxCell>
        <mxCell id="CCKKKjc9l-LzxRETcx_5-33" value="Sources of renewable energy" style="text;html=1;align=center;verticalAlign=middle;whiteSpace=wrap;rounded=0;" parent="1" vertex="1">
          <mxGeometry x="250" y="75" width="100" height="30" as="geometry" />
        </mxCell>
        <mxCell id="-wyY9S8bmilDTheORSCU-2" value="" style="edgeStyle=orthogonalEdgeStyle;rounded=0;orthogonalLoop=1;jettySize=auto;html=1;" edge="1" parent="1" source="-wyY9S8bmilDTheORSCU-1" target="CCKKKjc9l-LzxRETcx_5-3">
          <mxGeometry relative="1" as="geometry" />
        </mxCell>
        <mxCell id="-wyY9S8bmilDTheORSCU-1" value="" style="shape=image;aspect=fixed;image=data:image/png,iVBORw0KGgoAAAANSUhEUgAABLAAAASwCAYAAADrIbPPAAAAAXNSR0IArs4c6QAAIABJREFUeF7s3QfYXFWZB/DjhhSCCQnVAIEEpAkShEUFDAYiJUhHATE0FRCi7AKuGAhFepGAtFA1QCDBRVD6Sl+a4C4gCigCQkRpQgpJSNV93rtODAGSr8zcOTPzu8/zPaHM3HPu7z35vrn/75xzP/L3v//978lBgAABAgQIECBAgAABAgQIECBAIFOBjwiwMq2MbhEgQIAAAQIECBAgQIAAAQIECBQCAiwDgQABAgQIECBAgAABAgQIECBAIGsBAVbW5dE5AgQIECBAgAABAgQIECBAgAABAZYxQIAAAQIECBAgQIAAAQIECBAgkLWAACvr8ugcAQIECBAgQIAAAQIECBAgQICAAMsYIECAAAECBAgQIECAAAECBAgQyFpAgJV1eXSOAAECBAgQIECAAAECBAgQIEBAgGUMECBAgAABAgQIECBAgAABAgQIZC0gwMq6PDpHgAABAgQIECBAgAABAgQIECAgwDIGCBAgQIAAAQIECBAgQIAAAQIEshYQYGVdHp0jQIAAAQIECBAgQIAAAQIECBAQYBkDBAgQIECAAAECBAgQIECAAAECWQsIsLIuj84RIECAAAECBAgQIECAAAECBAgIsIwBAgQIECBAgAABAgQIECBAgACBrAUEWFmXR+cIECBAgAABAgQIECBAgAABAgQEWMYAAQIECBAgQIAAAQIECBAgQIBA1gICrKzLo3MECBAgQIAAAQIECBAgQIAAAQICLGOAAAECBAgQIECAAAECBAgQIEAgawEBVtbl0TkCBAgQIECAAAECBAgQIECAAAEBljFAgAABAgQIECBAgAABAgQIECCQtYAAK+vy6BwBAgQIECBAgAABAgQIECBAgIAAyxggQIAAAQIECBAgQIAAAQIECBDIWkCAlXV5dI4AAQIECBAgQIAAAQIECBAgQECAZQwQIECAAAECBAgQIECAAAECBAhkLSDAyro8OkeAAAECBAgQIECAAAECBAgQICDAMgYIECBAgAABAgQIECBAgAABAgSyFhBgZV0enSNAgAABAgQIECBAgAABAgQIEBBgGQMECBAgQIAAAQIECBAgQIAAAQJZCwiwsi6PzhEgQIAAAQIECBAgQIAAAQIECAiwjAECBAgQIECAAAECBAgQIECAAIGsBQRYWZdH5wgQIECAAAECBAgQIECAAAECBARYxgABAgQIECBAgAABAgQIECBAgEDWAgKsrMujcwQIECBAgAABAgQIECBAgAABAgIsY4AAAQIECBAgQIAAAQIECBAgQCBrAQFW1uXROQIECBAgQIAAAQIECBAgQIAAAQGWMUCAAAECBAgQIECAAAECBAgQIJC1gAAr6/LoHAECBAgQIECAAAECBAgQIECAgADLGCBAgAABAgQIECBAgAABAgQIEMhaQICVdXl0jgABAgQIECBAgAABAgQIECBAQIBlDBAgQIAAAQIECBAgQIAAAQIECGQtIMDKujw6R4AAAQIECBAgQIAAAQIECBAgIMAyBggQIECAAAECBAgQIECAAAECBLIWEGBlXR6dI0CAAAECBAgQIECAAAECBAgQEGAZAwQIECBAgAABAgQIECBAgAABAlkLCLCyLo/OESBAgAABAgQIECBAgAABAgQICLCMAQIECBAgQIAAAQIECBAgQIAAgawFBFhZl0fnCBAgQIAAAQIECBAgQIAAAQIEBFjGAAECBAgQIECAAAECBAgQIECAQNYCAqysy6NzBAgQIECAAAECBAgQIECAAAECAixjgAABAgQIECBAgAABAgQIECBAIGsBAVbW5dE5AgQIECBAgAABAgQIECBAgAABAZYxQIAAAQIECBAgQIAAAQIECBAgkLWAACvr8ugcAQIECBAgQIAAAQIECBAgQICAAMsYIECAAAECBAgQIECAAAECBAgQyFpAgJV1eXSOAAECBAgQIECAAAECBAgQIEBAgGUMECBAgAABAgQIECBAgAABAgQIZC0gwMq6PDpHgAABAgQIECBAgAABAgQIECAgwDIGCBAgQIAAAQIECBAgQIAAAQIEshYQYGVdHp0jQIAAAQIECBAgQIAAAQIECBAQYBkDBAgQIECAAAECBAgQIECAAAECWQsIsLIuj84RIECAAAECBAgQIECAAAECBAgIsIwBAgQIECBAgAABAgQIECBAgACBrAUEWFmXR+cIECBAgAABAgQIECBAgAABAgQEWMYAAQIECBAgQIAAAQIECBAgQIBA1gICrKzLo3MECBAgQIAAAQIECBAgQIAAAQICLGOAAAECBAgQIECAAAECBAgQIEAgawEBVtbl0TkCBAgQIECAAAECBAgQIECAAAEBljFAgAABAgQIECBAgAABAgQIECCQtYAAK+vy6BwBAgQIECBAgAABAgQIECBAgIAAyxggQIAAAQIECBAgQIAAAQIECBDIWkCAlXV5dI4AAQIECBAgQIAAAQIECBAgQECAZQwQIECAAAECBAgQIECAAAECBAhkLSDAyro8OkeAAAECBAgQIECAAAECBAgQICDAMgYIECBAgAABAgQIECBAgAABAgSyFhBgZV0enSNAgAABAgQIECBAgAABAgQIEBBgGQMECBAgQIAAAQIECBAgQIAAAQJZCwiwsi6PzhEgQIAAAQIECBAgQIAAAQIECAiwjAECBAgQIECAAAECBAgQIECAAIGsBQRYWZdH5wgQIECAAAECBAgQIECAAAECBARYxgABAgQIECBAgAABAgQIECBAgEDWAgKsrMujcwQIECBAgAABAgQIECBAgAABAgIsY4AAAQIECBAgQIAAAQIECBAgQCBrAQFW1uXROQIECBAgQIAAAQIECBAgQIAAAQGWMUCAAAECBAgQIECAAAECBAgQIJC1gAAr6/LoHAECBAgQIECAAAECBAgQIECAgADLGCBAgAABAgQIECBAgAABAgQIEMhaQICVdXl0jgABAgQIECBAgAABAgQIECBAQIBlDBAgQIAAAQIECBAgQIAAAQIECGQtIMDKujw6R4AAAQIECBAgQIAAAQIECBAgIMAyBggQIECAAAECBAgQIECAAAECBLIWEGBlXR6dI0CAAAECBAgQIECAAAECBAgQEGAZAwQIECBAgAABAgQIECBAgAABAlkLCLCyLo/OESBAgAABAgQIECBAgAABAgQICLCMAQIECBAgQIAAAQIECBAgQIAAgawFBFhZl0fnCBAgQIAAAQIECBAgQIAAAQIEBFjGAAECBAgQIECAAAECBAgQIECAQNYCAqysy6NzBAgQIECAAAECBAgQIECAAAECAixjgAABAgQIECBAgAABAgQIECBAIGsBAVbW5dE5AgQIECBAgAABAgQIECBAgAABAZYxQIAAAQIECBAgQIAAAQIECBAgkLWAACvr8ugcAQIECBAgQIAAAQIECBAgQICAAMsYIECAAAECBAgQIECAAAECBAgQyFpAgJV1eXSOAAECBAgQIECAAAECBAgQIEBAgGUMECBAgAABAgQIECBAgAABAgQIZC0gwMq6PDpHgAABAgQIECBAgAABAgQIECAgwDIGCBAgQIAAAQIECBAgQIAAAQIEshYQYGVdHp0jQIAAAQIECBAgQIAAAQIECBAQYBkDBAgQIECAAAECBAgQIECAAAECWQsIsLIuj84RIECAAAECBAgQIECAAAECBAgIsIwBAgQIECBAgAABAgQIECBAgACBrAUEWFmXR+cIECBAgAABAgQIECBAgAABAgQEWMYAAQIECBAgQIAAAQIECBAgQIBA1gICrKzLo3MECBAgQIAAAQIECBAgQIAAAQICLGOAAAECBAgQIECAAAECBAgQIEAgawEBVtbl0TkCBAgQIECAAAECBAgQIECAAAEBljFAgAABAgQIECBAgAABAgQIECCQtYAAK+vy6BwBAgQIECBAgAABAgQIECBAgIAAyxggQIAAAQIECBAgQIAAAQIECBDIWkCAlXV5dI4AAQIECBAgQIAAAQIECBAgQECAZQwQIECAAAECBAgQIECAAAECBAhkLSDAyro8OkeAAAECBAgQIECAAAECBAgQICDAMgYIECBAgAABAgQIECBAgAABAgSyFhBgZV0enSNAgAABAgQIECBAgAABAgQIEBBgGQMECBAgQIAAAQIECBAgQIAAAQJZCwiwsi6PzhEgQIAAAQIECBAgQIAAAQIECAiwjAECBAgQIECAAAECBAgQIECAAIGsBQRYWZdH5wgQIECAAAECBAgQIECAAAECBARYxgABAgQIECBAgAABAgQIECBAgEDWAgKsrMujcwQIECBAgAABAgQIECBAgAABAgIsY4AAAQIECBAgQIAAAQIECBAgQCBrAQFW1uXROQIECBAgQIAAAQIECBAgQIAAAQGWMUCAAAECBAgQIECAAAECBAgQIJC1gAAr6/LoHAECBAgQIECAAAECBAgQIECAgADLGCBAgAABAgQIECBAgAABAgQIEMhaQICVdXl0jgABAgQIECBAgAABAgQIECBAQIBlDBAgQIAAAQIECBAgQIAAAQIECGQtIMDKujw6R4AAAQIECBAgQIAAAQIECBAgIMAyBggQIECAAAECBAgQIECAAAECBLIWEGBlXR6dI0CAAAECBAgQIECAAAECBAgQEGAZAwQIECBAgAABAgQIECBAgAABAlkLCLCyLo/OESBAgAABAgQIECBAgAABAgQICLCMAQIECBAgQIAAAQIECBAgQIAAgawFBFhZl0fnCBAgQIAAAQIECBAgQIAAAQIEBFjGAAECBAgQIECAAAECBAgQIECAQNYCAqysy6NzBAgQIECAAAECBAgQIECAAAECAixjgAABAgQIECBAgAABAgQIECBAIGsBAVbW5dE5AgQIECBAgAABAgQIECBAgAABAZYxQIAAAQIECBAgQIAAAQIECBAgkLWAACvr8ugcAQIECBAgQIAAAQIECBAgQICAAMsYIECAAAECBAgQIECAAAECBAgQyFpAgJV1eXSOAAECBAgQIECAAAECBAgQIEBAgGUMECBAgAABAgQIECBAgAABAgQIZC0gwMq6PDpHgAABAgQIECBAgAABAgQIECAgwDIGCBAgQIAAAQIECBAgQIAAAQIEshYQYGVdHp0jQIAAAQIECBAgQIAAAQIECBAQYBkDBAgQIECAAAECBAgQIECAAAECWQsIsLIuj84RIECAAAECBAgQIECAAAECBAgIsIwBAgQIECBAgAABAgQIECBAgACBrAUEWFmXR+cIECBAgAABAgQIECBAgAABAgQEWMYAAQIECBAgQIAAAQIECBAgQIBA1gICrKzLo3MECBAgQIAAAQIECBAgQIAAAQICLGOAAAECBAgQIECAAAECBAgQIEAgawEBVtbl0TkCBAgQIECAAAECBAgQIECAAAEBljFAgAABAgQIECBAgAABAgQIECCQtYAAK+vy6BwBAgQIECBAgAABAgQIECBAgIAAyxggQIAAAQIECBAgQIAAAQIECBDIWkCAlXV5dI4AAQIECBAgQIAAAQIECBAgQECAZQwQIECAAAECBAgQIECAAAECBAhkLSDAyro8OkeAAAECBAgQIECAAAECBAgQICDAMgYIECBAgAABAgQIECBAgAABAgSyFhBgZV0enSNAgAABAgQIECBAgAABAgQIEBBgGQMECBAgQIAAAQIECBAgQIAAAQJZCwiwsi6PzhEgQIAAAQIECBAgQIAAAQIECAiwjAECBAgQIECAAAECBAgQIECAAIGsBQRYWZdH5wgQIECAAAECBAgQIECAAAECBARYxgABAgQIECBAgAABAgQIECBAgEDWAgKsrMujcwQIECBAgAABAgQIECBAgAABAgIsY4AAAQIECBAgQIAAAQIECBAgQCBrAQFW1uXROQIECBAgQIAAAQIECBAgQIAAAQGWMUCAAAECBAgQIECAAAECBAgQIJC1gAAr6/LoHAECBAgQIECAAAECBAgQIECAgADLGCBAgAABAgQIECBAgAABAgQIEMhaQICVdXl0jgABAgQIECBAgAABAgQIECBAQIBlDBAgQIAAAQIECBAgQIAAAQIECGQtIMDKujw6R4AAAQIECBAgQIAAAQIECBAgIMAyBggQIECAAAECBAgQIECAAAECBLIWEGBlXR6dI0CAAAECBAgQIECAAAECBAgQEGAZAwQIECBAgAABAgQIECBAgAABAlkLCLCyLo/OESBAgAABAgQIECBAgAABAgQICLCMAQIECBAgQIAAAQIECBAgQIAAgawFBFhZl0fnCBAgQIAAAQIECBAgQIAAAQIEBFjGAAECBAgQIECAAAECBAgQIECAQNYCAqysy6NzBAgQIECAAAECBAgQIECAAAECAixjgAABAgQIECBAgAABAgQIECBAIGsBAVbW5dE5AgQIECBAgAABAgQIECBAgAABAZYxQIAAAQIECBAgQIAAAQIECBAgkLWAACvr8ugcAQIECBAgQIAAAQIECBAgQICAAMsYIECAAAECBAgQIECAAAECBAgQyFpAgJV1eXSOAAECBAgQIECAAAECBAgQIEBAgGUMECBAgAABAgQIECBAgAABAgQIZC0gwMq6PDpHgAABAgQIECBAgAABAgQIECAgwDIGCBAgQIAAAQIECBAgQIAAAQIEshYQYGVdHp0jQIAAAQIECBAgQIAAAQIECBAQYBkDBAgQIECAAAECBAgQIECAAAECWQsIsLIuj84RIECAAAECBAgQIECAAAECBAgIsIwBAgQIECBAgAABAgQIECBAgACBrAUEWFmXR+cIECBAgAABAgQIECBAgAABAgQEWMYAAQIECBAgQIAAAQIECBAgQIBA1gICrKzLo3MECBAgQIAAAQIECBAgQIAAAQICLGOAAAECBAgQIECAAAECBAgQIEAgawEBVtbl0TkCBAgQIECAAAECBAgQIECAAAEBljFAgAABAgQIECBAgAABAgQIECCQtYAAK+vy6BwBAgQIECBAgAABAgQIECBAgIAAyxggQIAAAQIECBAgQIAAAQIECBDIWkCAlXV5dI4AAQIECBAgQIAAAQIECBAgQECAZQwQIECAAAECBAgQIECAAAECBAhkLSDAyro8OkeAAAECBAgQIECAAAECBAgQICDAMgYIECBAgAABAgQIECBAgAABAgSyFhBgZV0enSNAgAABAgQIECBAgAABAgQIEBBgGQMECBAgQIAAAQIECBAgQIAAAQJZCwiwsi6PzhEgQIAAAQIECBAgQIAAAQIECAiwjAECBAgQIECAAAECBAgQIECAAIGsBQRYWZdH5wgQIECAAAECBAgQIECAAAECBARYxgABAgQIECBAgAABAgQIECBAgEDWAgKsrMujcwQIECBAgAABAgQIECBAgAABAgIsY4AAAQIECBAgQIAAAQIECBAgQCBrAQFW1uXROQIECBAgQIAAAQIECBAgQIAAAQGWMUCAAAECBAgQIECAAAECBAgQIJC1gAAr6/LoHAECBAgQIECAAAECBAgQIECAgADLGCBAgAABAgQIECBAgAABAgQIEMhaQICVdXl0jgABAgQIECBAgAABAgQIECBAQIBlDBAgQIAAAQIECBAgQIAAAQIECGQtIMDKujw6R4AAAQIECBAgQIAAAQIECBAgIMAyBggQIECAAAECBAgQIECAAAECBLIWEGBlXR6dI0CAAAECBAgQIECAAAECBAgQEGAZAwQIECBAgAABAgQIECBAgAABAlkLCLCyLo/OESBAgAABAgQIECBAgAABAgQICLCMAQIECBAgQIAAAQIECBAgQIAAgawFBFhZl0fnCBAgQIAAAQIECBAgQIAAAQIEBFjGAAECBAgQIECAAAECBAgQIECAQNYCAqysy6NzBAgQIECAAAECBAgQIECAAAECAixjgAABAgQIECBAgAABAgQIECBAIGsBAVbW5dE5AgQIECBAgAABAgQIECBAgAABAZYxQIAAAQIECBAgQIAAAQIECBAgkLWAACvr8ugcAQIECBAgQIAAAQIECBAgQICAAMsYIECAAAECBAgQIECAAAECBAgQyFpAgJV1eXSOAAECBAgQIECAAAECBAgQIEBAgGUMECBAgAABAgQIECBAgAABAgQIZC0gwMq6PDpHgAABAgQIECBAgAABAgQIECAgwDIGCBAgQIAAAQIECBAgQIAAAQIEshYQYGVdHp0jQIAAAQIECBAgQIAAAQIECBAQYBkDBAgQIECAAAECBAgQIECAAAECWQsIsLIuj84RIECAAAECBAgQIECAAAECBAgIsIwBAgQIECBAgAABAgQIECBAgACBrAUEWFmXR+cIECBAgAABAgQIECBAgAABAgQEWMYAAQIECBAgQIAAAQIECBAgQIBA1gICrKzLo3MECBAgQIAAAQIECBAgQIAAAQICLGOAAAECBAgQIECAAAECBAgQIEAgawEBVtbl0TkCBAgQIECAAAECBAgQIECAAAEBljFAgAABAgQIECBAgAABAgQIECCQtYAAK+vy6BwBAgQIECBAgAABAgQIECBAgIAAyxggQIAAAQIECBAgQIAAAQIECBDIWkCAlXV5dI4AAQIECBAgQIAAAQIECBAgQECAZQwQIECAAAECBAgQIECAAAECBAhkLSDAyro8OkeAAAECBAgQIECAAAECBAgQICDAMgYIECBAgAABAgQIECBAgAABAgSyFhBgZV0enSNAgAABAgQIECBAgAABAgQIEBBgGQMECBAgQIAAAQIECBAgQIAAAQJZCwiwsi6PzhEgQIAAAQIECBAgQIAAAQIECAiwjAECBAgQIECAAAECBAgQIECAAIGsBQRYWZdH5wgQIECAAAECBAgQIECAAAECBARYxgABAgQIECBAgAABAgQIECBAgEDWAgKsrMujcwQIECBAgAABAgQIECBAgAABAgIsY4AAAQIECBAgQIAAAQIECBAgQCBrAQFW1uXROQIECBAgQIAAAQIECBAgQIAAAQGWMUCAAAECBAgQIECAAAECBAgQIJC1gAAr6/LoHAECBAgQIECAAAECBAgQIECAgADLGCBAgAABAgQIECBAgAABAgQIEMhaQICVdXl0jgABAgQIECBAgAABAgQIECBAQIBlDBAgQIAAAQIECBAgQIAAAQIECGQtIMDKujw6R4AAAQIECBAgQIAAAQIECBAgIMAyBggQIECAAAECBAgQIECAAAECBLIWEGBlXR6dI0CAAAECBAgQIECAAAECBAgQEGAZAwQIECBAgAABAgQIECBAgAABAlkLCLCyLo/OESBAgAABAgQIECBAgAABAgQICLCMAQIECBAgQIAAAQIECBAgQIAAgawFBFhZl0fnCBAgQIAAAQIECBAgQIAAAQIEBFjGAAECBAgQIECAAAECBAgQIECAQNYCAqysy6NzBAgQIECAAAECBAgQIECAAAECAixjgAABAgQIECBAgAABAgQIECBAIGsBAVbW5dE5AgQIECBAgAABAgQIECBAgAABAZYxQIAAAQIECBAgQIAAAQIECBAgkLWAACvr8ugcAQIECBAgQIAAAQIECBAgQICAAMsYIECAAAECBAgQIECAAAECBAgQyFpAgJV1eXSOAAECBAgQIECAAAECBAgQIEBAgGUMECBAgAABAgQIECBAgAABAgQIZC0gwMq6PDpHgAABAgQIECBAgAABAgQIECAgwDIGCBAgQIAAAQIECBAgQIAAAQIEshYQYGVdHp0jQIAAAQIECBAgQIAAAQIECBAQYBkDBAgQIECAAAECBAgQIECAAAECWQsIsLIuj84RIECAAAECBAgQIECAAAECBAgIsIwBAgQIECBAgAABAgQIECBAgACBrAUEWFmXR+cIECBAgAABAgQIECBAgAABAgQEWMYAAQIECBAgQIAAAQIECBAgQIBA1gICrKzLo3MECBAgQIAAAQIECBAgQIAAAQICLGOAAAECBAgQIECAAAECBAgQIEAgawEBVtbl0TkCBAgQIECAAAECBAgQIECAAAEBljFAgAABAgQIECBAgAABAgQIECCQtYAAK+vy6BwBAgQIECBAgAABAgQIECBAgIAAyxggQIAAAQIECBAgQIAAAQIECBDIWkCAlXV5dI4AAQIECBAgQIAAAQIECBAgQECAZQwQIECAAAECBAgQIECAAAECBAhkLSDAyro8OkeAAAECBAgQIECAAAECBAgQICDAMgYIECBAgAABAgQIECBAgAABAgSyFhBgZV0enSNAgAABAgQIECBAgAABAgQIEBBgGQMECBAgQIAAAQIECBAgQIAAAQJZCwiwsi6PzhEgQIAAAQIECBAgQIAAAQIECAiwjAECBAgQIECAAAECBAgQIECAAIGsBQRYWZdH5wgQIECAAAECBAgQIECAAAECBARYxgABAgQIECBAgAABAgQIECBAgEDWAgKsrMujcwQIECBAgAABAgQIECBAgAABAgIsY4AAAQIECBAgQIAAAQIECBAgQCBrAQFW1uXROQIECBAgQIAAAQIECBAgQIAAAQGWMUCAAAECBAgQIECAAAECBAgQIJC1gAAr6/LoHAECBAgQIECAAAECBAgQIECAgADLGCBAgAABAgQIECBAgAABAgQIEMhaQICVdXl0jgABAgQIECBAgAABAgQIECBAQIBlDBAgQIAAAQIECBAgQIAAAQIECGQtIMDKujw6R4AAAQIECBAgQIAAAQIECBAgIMAyBggQIECAAAECBAgQIECAAAECBLIWEGBlXR6dI0CAAAECBAgQIECAAAECBAgQEGAZAwQIECBAgAABAgQIECBAgAABAlkLCLCyLo/OESBAgAABAgQIECBAgAABAgQICLCMAQIECBAgQIAAAQIECBAgQIAAgawFBFhZl0fnCBAgQIAAAQIECBAgQIAAAQIEBFjGAAECBAgQIECAAAECBAgQIECAQNYCAqysy6NzBAgQIED+4Ih4AAAgAElEQVSAAAECBAgQIECAAAECAixjgAABAgQIECBAgAABAgQIECBAIGsBAVbW5dE5AgQIECBAgAABAgQIECBAgAABAZYxQIAAAQIECBAgQIAAAQIECBAgkLWAACvr8ugcAQIECBAgQIAAAQIECBAgQICAAMsYIECAAAECBAgQIECAAAECBAgQyFpAgJV1eXSOAAECBAgQIECAAAECBAgQIEBAgGUMECBAgAABAgQIECBAgAABAgQIZC0gwMq6PDpHgAABAgQIECBAgAABAgQIECAgwDIGCBAgQIAAAQIECBAgQIAAAQIEshYQYGVdHp0jQIAAAQIECBAgQIAAAQIECBAQYBkDBAgQIECAAAECBAgQIECAAAECWQsIsLIuj84RIECAAAECBAgQIECAAAECBAgIsIwBAgQIECBAgAABAgQIECBAgACBrAUEWFmXR+cIECBAgAABAgQIECBAgAABAgQEWMYAAQIECBAgQIAAAQIECBAgQIBA1gICrKzLo3MECBAgQIAAAQIECBAgQIAAAQICLGOAAAECBAgQIECAAAECBAgQIEAgawEBVtbl0TkCBAgQIECAAAECBAgQIECAAAEBljFAgAABAgQIECBAgAABAgQIECCQtYAAK+vy6BwBAgQIECBAgAABAgQIECBAgIAAyxggQIAAAQIECBAgQIAAAQIECBDIWkCAlXV5dI4AAQIECBAgQIAAAQIECBAgQECAZQwQIECAAAECBAgQIECAAAECBAhkLSDAyro8OkeAAAECBAgQIECAAAECBAgQICDAMgYIECBAgAABAgQIECBAgAABAgSyFhBgZV0enSNAgAABAgQIECBAgAABAgQIEBBgGQMECBAgQIAAAQIECBAgQIAAAQJZCwiwsi6PzhEgQIAAAQIECBAgQIAAAQIECAiwjAECBAgQIECAAAECBAgQIECAAIGsBQRYWZdH5wgQIECAAAECBAgQIECAAAECBARYxgABAgQIECBAgAABAgQIECBAgEDWAgKsrMujcwQIECBAgAABAgQIECBAgAABAgIsY4AAAQIECBAgQIAAAQIECBAgQCBrAQFW1uXROQIECBAgQIAAAQIECBAgQIAAAQGWMUCAAAECBAgQIECAAAECBAgQIJC1gAAr6/LoHAECBAgQIECAAAECBAgQIECAgADLGCBAgAABAgQIECBAgAABAgQIEMhaQICVdXl0jgABAgQIECBAgAABAgQIECBAQIBlDBAgQIAAAQIECBAgQIAAAQIECGQtIMDKujw6R4AAAQIECBAgQIAAAQIECBAgIMAyBggQIECAAAECBAgQIECAAAECBLIWEGBlXR6dI0CAAAECBAgQIECAAAECBAgQEGAZAwQIECBAgAABAgQIECBAgAABAlkLCLCyLo/OESBAgAABAgQIECBAgAABAgQICLCMAQIECBAgQIAAAQIECBAgQIAAgawFBFhZl0fnCBAgQIAAAQIECBAgQIAAAQIEBFjGAAECBAgQIECAAAECBAgQIECAQNYCAqysy6NzBAgQIECAAAECBAgQIECAAAECAixjgAABAgQIECBAgAABAgQIECBAIGsBAVbW5dE5AgQIECBAgAABAgQIECBAgAABAZYxQIAAAQIECBAgQIAAAQIECBAgkLWAACvr8ugcAQIECBAgQIAAAQIECBAgQICAAMsYILAIgb///e/v+7/z5s1LC37Fayqv+8hHPlK8/oPeB5oAAQIECLSyQPxs/Nvf/lZ8VX5Oxj9/2BE/U//lX/4lxZ8LfsXr47/7WdvKo8m1E2g8gYXvE+Lfl1hiieL7WZcuXYqvymvi6hb858a7Wj0mUBsBAVZtXJ21gQUqgVT8GUHV7Nmziz/j3xf+QSKwauBC6zoBAgQIVF0gflbOmTMnzZgxI82aNWv+L3Xiv73yyivpscceSxMnTkx/+tOf0u9///v05z//ef5rFvxlUNzQrbDCCmmttdZKq666aho4cGDaaKONUv/+/VP37t2LG744evToMf+r6hfjhAQIEKiRQNxDfFAIX7nfiP/frVu3+QFXJdASatWoIE7bMAICrIYplY7WSqDyG+H4gTB37twisIo//YColbjzEiBAgECzCMTP0EmTJqU33nijuBmLoOrpp59ON954Y3rwwQfTu+++W5OZUpXZWUOGDEnxteWWWxY3enHD17dv39S7d+9iNoODAAECzSIQ39/ia8Ewy/1Ks1TXdbRVQIDVVimvayqByiyrylKGmTNnzr8+SxKaqtQuhgABAgSqLBChVMygmjJlSvFLn5tuuilNmDAhTZ069T0/Sz9shkE1ulM598JLCWPW1m677VYEWhFi9enTp5i1tdRSS82/6fNzvhoVcA4CBMoUWHAlSGXpYdeuXYvZqJWl1mX2R1sE6iUgwKqXvHbrIlAJrOLP+C1xzLRyECBAgAABAosWmD59erHk78033yyWAo4fPz499dRTxc/SXAOhuKkbNGhQ2nPPPdOAAQPSiiuumNZbb71iBsMHbQtgDBAgQKDRBOL7XARZlb20KvsFNtp16C+BtgoIsNoq5XUNLVAJriKwig/bi9o0tqEvVOcJECBAgECVBGL/x5deeik9+eSTxb5VP//5z9NvfvOb92zCXqWmanaayl5ZEVhVwqxlllkmffKTn0zrrrvu/O0CajlbrGYX58QECBD4h0BlVlYEWZUN4eEQaEYBAVYzVtU1zReID6wRWlW+BFcGBwECBAgQWLRAbMAem63HXlaPP/54uv3224tN2ZvliFBr2223TVtssUVaaaWV0rBhw4qN4XOdSdYs7q6DAIFyBGJGVoRYlTCrnFa1QqAcAQFWOc5aKVlAcFUyuOYIECBAoOEFYoZyLA18/vnn03333Zd++9vfzg91mincqWx6HH+uvPLKaY899ij+3HHHHdNyyy1X1NHGyA0/nF0AgZYXqARYEdD7ntbyw6FpAARYTVNKF1IRiCUPsals/BlfDgIECBAgQODDBWKW8jnnnFPsbxUbsscTBeNolVnLMSMrlhUOHTo0bbTRRmmHHXYoAi0HAQIEmkEg9v2L73PxpyCrGSra2tcgwGrt+jfN1Vd+Mzxr1qwitLI5e9OU1oUQIECAQJUFKhuYx5/nnXdeevbZZ9Ott96apk2b9p6WmmnW1aIIK/tfxZ/LL798EWJtvfXWaeeddy5mZNnwvcoD0OkIEChdIL6/xdLCyobvpXdAgwSqJCDAqhKk09RXIEKrmTNnFuFVq3zgrq+41gkQIECgUQXi5+S4cePSPffckx544IH01ltv+dm5QDFjpkK/fv3Smmuumb72ta8VYdaSSy7ZqOXWbwIECMwXqOyN1aNHDyoEGlJAgNWQZdPpBQUiuIoZV5YLGhcECBAgQOD9ApUlIxFcxebsY8eOTffff3967bXX/OxcxIAJt9VWWy0NGDAgnXrqqekTn/hE8WpPLPS3jACBRhaI72GxnLCy2XsjX4u+t56AAKv1at40VxwfxOOpSGZdNU1JXQgBAgQI1EgglgdeeumlRXgVe1zFknszlhePHTd6MSOrf//+xZMLR40alXr37s1u8XReQYBAxgLxvS1mY0WQFZu92xsr42Lp2nsEBFgGRMMJxAfuCK3iw7e9rhqufDpMgAABAiUL3HvvvemEE04oni44ffr0kltvnuZiyU3fvn2L/cIGDhxYXJibvuaprysh0IoC8T0svrdFkOUg0AgCAqxGqJI+vkcgHvNd2awdDQECBAgQIPDBAu+880666qqr0oknnlj8wieeKmjWVedHS+yHtcUWW6Tx48cXs7McBAgQaHSBSogllG/0SjZ//wVYzV/jprnC+NA9e/bs4qtVHu3dNMVzIQQIECBQikBlf6Znnnkm7bvvvumFF14QWtVIPjZ6j43w48mFlSU4AsIaYTstAQI1F4hZWN27dxfM11xaA50REGB1Rs97SxOohFexYbuDAAECBAgQ+GCBWCL4xBNPpJ122qkIrgQqtRkplaCwT58+acSIEemggw5KSy+9dG0ac1YCBAjUWCB+VsT3tdjYPWZjmV1aY3Cn77CAAKvDdN5YloDwqixp7RAgQIBAIwu8+OKL6YorrkhjxowxU7nEQsZGyEOHDk3nnntuillZluCUiK8pAgSqKlDZ3D1CrPje5iCQm4AAK7eK6M97BCK8iv2uYuaVD4QGBwECBAgQeL9A/KyMWVcHHnhgihArDjOvyh0pMVsh9sWKzfLXXnvtFPtkOQgQINCIApWnr8b3MSFWI1awufsswGru+jb01VVmXkWA5cN4Q5dS5wkQIECgRgLxYJOHH344ff3rX09vv/22mVc1cm7LaeOmb8MNN0wHH3xw2mqrrdIKK6zQlrd5DQECBLITqMzEihDLcsLsytPSHRJgtXT58714ywbzrY2eESBAgEAeApMnT0533nlnOvbYY9Prr7/ulz15lKVYRrj33nunAw44IK288spmkGdSF90gQKB9AhFixQMq7InVPjevrq2AAKu2vs7eQYF40mDMvPK0wQ4CehsBAgQINLXAxIkT0w033JAuueSSIrzy8zKfcsdN31JLLZV23333dMQRR6TVVlstn87pCQECBNopEBu7x0ws27m0E87LayIgwKoJq5N2RmDu3Lnp3Xff9WG8M4jeS4AAAQJNK/D000+nsWPHphtvvDG99dZb9rvKsNKV5TcRYsUMuVVWWSXDXuoSAQIEFi8Q38+6deuWunfvXrxYkLV4M6+onYAAq3a2ztwBgfgN8owZM9K8efM68G5vIUCAAAECzSsQNw2xWfuFF16YfvGLX6QpU6Y078U2wZVFveJr5513TqeeemqxtNBBgACBRhSI72URYFVCrEa8Bn1uDgEBVnPUsWmuYvr06SlmYDkIECBAgACBfwpUwqsf/OAH6d57703x89LRGAJRu2HDhqWLLroo9enTpzE6rZcECBBYSCA2c48AK2ZjOQjUS0CAVS957b5PIJYNxt5XDgIECBAgQOC94dVTTz2VTjvttHTfffcVM5UdjSNQmYk1ZMiQNH78eDMYGqd0ekqAwEIClU3du3TpwoZAXQQEWHVh1+jCAjHrKj6Qx9MHHQQIECBAgMA/BZ577rl08sknF08cjF/2OBpTIIKsTTfdNN16663FBdhHpjHrqNcEWlmgsh9WPJnQQaAeAgKseqhr8z0CEVrFUgj7XhkYBAgQIEDgvQKvvPJKMfMqnjgovGrs0VGZibXhhhumu+++W4DV2OXUewItKyDEatnSZ3HhAqwsytC6nYjwKj6Qz5kzp3URXDkBAgQIEPgAgXfeeSeNGTMmjR49Os2cObNhjSrBTWWW9YKzrSv/b8GLW/D/xz/Hayp/xusafbZ2LL3ZeOONi434F7yuhi2wjhMg0HIClhK2XMmzuWABVjalaL2OxIe2mHUVH8rj6YON/oG09SroigkQIECgVgLxi51bbrklHXTQQQ3/S54IoJZccsn0+c9/Pn3pS19Km222Werdu3cRTMWmwJVQ6oOW1MXng6lTp6YHH3ww/dd//Ve655570ttvv93QnxniOrt27Zq22WabNG7cuFoNIeclQIBATQViQ3dLCWtK7OQfICDAMizqKuCpg3Xl1zgBAgQIZCgQoc3vfve7NHjw4IZaXl8JZmKG0cc+9rG07777pq9+9atphRVWqJpyZTZWBHwXXnhhiqcyhlf8QiweBNNIvwxbeuml09e//vU0atSoIsyzJ1bVhokTESBQgkB8z4oAy1MJS8DWxHwBAZbBUDeBWbNmFR8244OngwABAgQIEPh/gZdeeilttNFG88OY3EOZ+C38sssumz760Y+mww47LO29997vCWQqoVO16rvg+cImwqy77rqr2Oj+r3/9a7GvZnzlfkTQN3DgwHT66aenoUOHCrByL5j+ESDwPoH4/h9fAniDoywBAVZZ0tp5j0Bl6WA8fdBBgAABAgQI/P/eTrFpe+yPFD8fc/4FT9ysLLfccmmZZZYplgSeeeaZxW/h6x22vfrqq+nHP/5xuvnmm4sw66233sreMZ5MeP7556c11ljDXwMCBAg0nEAsETcLq+HK1rAdFmA1bOkau+Ox71WjTfVvbHG9J0CAAIHcBSZPnlzsEfX4448XQVC9w6CFvSq/Ye/Xr19aZZVV0le+8pXiK25eFtxsvZ7O0ccI/uIzxn/+538WX88991x6/fXXswyyKksHv/CFL6SzzjorrbbaavXk0zYBAgTaLRB7+sVSwsqehu0+gTcQaIeAAKsdWF5aHYGYfRXLBz15sDqezkKAAAECjS1QCap++MMfplNOOSXLn48RtERwteaaa6a99tor7bDDDsWSwZyXjYRrhFlXX311scTwkUceyXYD+Hii1x577JGOP/74tOKKKzb2gNZ7AgRaTqBnz57FwykcBGotIMCqtbDzv08gwqv4yu03y0pFgAABAgTqJXDrrbemb33rWylmYeX087HyBMFBgwal3XbbLe24447FBu1xVGZd1cusre3GNcTnjgsuuCA9+uij6f777y+egJzTEX0M1+985ztpn332sRwnp+LoCwECixUwC2uxRF5QJQEBVpUgnaZtAmZftc3JqwgQIECgdQRiZtBBBx2U/vSnP2V10RGqfPzjH08777xz+uIXv5g+9alPZdW/jnRm4sSJ6aqrrkrXX399sVl+bsfmm2+eTjjhhLTJJpvk1jX9IUCAwCIFzMIyQMoQEGCVoayN+QKxJ0X81jOn3y4rDwECBAgQqIdABERTp05NI0aMSHfccUexb1MuR9yIfOYzn0n7779/2n777bPYoL2zNpWnF8ZnkBtuuCH98pe/TJdffnnxmST2bsll0/wIDEeNGpXWWmstn5c6W3TvJ0CgNAGzsEqjbumGBFgtXf5yLz4+GMYU/pw+oJcroDUCBAgQIPBPgQhULrroojR69Oj05ptvZkOz/PLLp8MOOywNHjw4bbjhhtn0q9odmTRpUvrRj36ULrzwwjRlypQUs8RzOCI8jAArwsP4ZwcBAgQaQSB+pi211FKpS5cujdBdfWxQAQFWgxauEbsdm7bH7KtcfsPZiIb6TIAAAQLNIxD7Xn3/+98vnpKXwxE3HyussEI6++yz09ChQ4unCzb7EZ9LbrrppmJJYWz0nsPTH6MO66yzTjrvvPMsJWz2Aej6CDSZQPfu3VN85fyAjyYjb7nLEWC1XMnrc8HxgbCyfLA+PdAqAQIECBDIR2DatGnpqKOOKoKT+PlY76X1cbPxr//6r+m4445LsQ9T/Hur3IDEL9h+//vfp2uvvTaNGTOm7rWIURr2ESKeeeaZafXVV89n4OoJAQIEFiEQ37t69erVMj8/DIbyBQRY5Zu3ZIsxLT9+yzl37tyWvH4XTYAAAQIEFhSIZWuxdPDtt9+uW2AS+z5VjkMOOSTtu+++ae21127JQsXs8LfeeitdeumlxQy0HGZidevWLV122WXFHmQeT9+Sw9JFE2hIgVhGuMQSSzRk33U6fwEBVv41aooexm83Z8yY0RTX4iIIECBAgEBnBB5++OFi6eBjjz1Wt/Aq+l8JsCKwiY3Dl1lmmc5cVsO/N2YOxF5Y559/fjr33HNTfHap97HSSiulW265xSysehdC+wQItFkgAvdYgt4qs3jbDOOFVREQYFWF0UkWJ+Dpg4sT8v8JECBAoBUEYqZPzLyKpWERkNRj6eCCNxXxFL5hw4bZLHyBwRe/cIv9p+Kr3r98i1rFzLhTTjmlWJZTj/HSCn8vXSMBAtUV6N27twCruqTO9g8BAZahUHOB+LD+7rvvWj5Yc2kNECBAgEDuArHP0jHHHJMmT55ctzCisr/V2LFji/DK8rT3jprwiV+8nXHGGcWeWNOnT6/rsIr6PPXUU6lfv3517YfGCRAg0BYB+2C1RclrOiogwOqonPe1WSD2vYoPf/FbQ1NJ28zmhQQIECDQRALx82/q1KnF8rSzzjqrLuFV5Wdw7E0Se3DtuuuuwqtFjLH43HLsscemH//4x8VMrHrOflp11VXT//zP/6TYF8tBgACB3AV69OhRPI3QQaDaAgKsaos63/sEKgEWGgIECBAg0KoCMRt5/Pjx6dvf/naKf67HEQFWbK4boczw4cOLf3YsWiBCq8MPPzxNmDCheBhNvY6o3QMPPJDWX3/9enVBuwQIEGizQHzPimWEDgLVFhBgVVvU+d4jEB/8KvtfoSFAgAABAq0qMHHixHT66aenWEJYryMCq3jaYHwtu+yy9epGQ7VbmXUVZjfddFPd9sSKDfdj9lWMo5jVUM/ZYA1VQJ0lQKBuAksvvbQVOHXTb96GBVjNW9ssrmzevHnF/lfxp4MAAQIECLSiQGzWfuONN6ZvfvObdZt9FeHH9ttvn4466qi07rrrtmIZOnXNERgdfPDB6Wc/+1nxi7myj8q+ZVdccUWx9NNBgACB3AU++tGPFk+7tYVM7pVqrP4JsBqrXg3X2wiupk2b1nD91mECBAgQIFAtgZdffjkdffTR6fbbb69LgBU3DxtuuGE67rjj0pZbblmty2q588Qv5Pbbb79099131+0XczGL7ve//32KG0MHAQIEchaIX5zEXlgCrJyr1Hh9E2A1Xs0aqscCrIYql84SIECAQJUFYvbVbbfdlvbff//iQ3zZ+19FmwMHDkwjR45MX/rSl9xIdLK+zzzzTNpzzz3TK6+8UpdlfHFDeMopp6QDDzywqKWlhJ0sqLcTIFAzgZh91atXr5qd34lbU0CA1Zp1L+2qbeBeGrWGCBAgQCBDgVdffTUddthh6c4776xL71ZeeeV05JFHpgMOOKBo32/CO1+GH/3oR+k//uM/ijCyHgHSSiutVDyRMGZj1aP9zgs6AwECrSAQP28iwPJzpxWqXd41CrDKs265liobuM+aNcsHrJarvgsmQIAAgZiF/NBDD6VddtmlLjOvllxyyaLt2Dze06CqOx5POumkNHr06Lp8vonlg7Ek9dBDD63uRTkbAQIEqiwQG7k7CFRTQIBVTU3neo9ABFgzZsxIMQvLQYAAAQIEWkkgfgZOmTIlHXTQQemuu+4qPcCKpRvrrLNOOu+889Imm2xSl6Clmesd+2HFrLY77rij9MuM2Qzrr79+uu+++1KXLl1Kb1+DBAgQaItAfK+qbOTeltd7DYG2CAiw2qLkNR0SiA/v77zzjg/NHdLzJgIECBBodIGJEyemQYMGFZdR9lKvWGZ29tlnp2HDhjU6Y5b9j3o++uijaeeddy6eSlh2fZdffvliU/7hw4dbnpPlCNEpAgQiwOrZs2daYoklYBComoAAq2qUTrSwQOwNEQGWgwABAgQItJpAzD6OJV4/+clPSr/0rl27FsHKJZdcYoZODfVji4Rrrrmm2GOs7AArajxkyJBifNlfpoZFdmoCBDolEE8h7N69e6fO4c0EFhQQYBkPNRGofJAzA6smvE5KgAABApkLxBKz1VdfPcWfZR8xOyc2jR8wYEDZTbdce3/5y1/SiBEjiuV8ZYdYH//4x9M555yTBg8e3HLuLpgAgfwFIlyPsD32Y3QQqJaAAKtaks7zPgEzsAwKAgQIEGhVgcsvv7x4Ul3ZoUb8pvuyyy5LO+20U4p9sOJnsaN2ArFRf4SFsZSv7D0/48Zw9913TxdffHHtLtCZCRAg0AmBWD4YT0x1EKiWgACrWpLO8x6B+MBe2QMLDQECBAgQaBWBynKuVVddtdjEveyjb9++6Q9/+IM9R0qEnzx5crFcM572WGZgGWPtC1/4Qho7dqwbxBLrrSkCBNouEA+aiI3cHQSqJSDAqpak8wiwjAECBAgQaHmBCBWmT5+eYhP1+OeyAo1KWy+99FLq06dPy9ehbIDKLKzYF6vMIx5Rf8ghh6Tvfe97ZTarLQIECLRJIH429e7du02v9SICbREQYLVFyWvaLWAGVrvJvIEAAQIEmkRgt912S/fcc0+pVxM3Ceuvv3564IEHSm1XY/8vEEsJx40blw4//PAitCwzuNxzzz3TRRddVCwZdRAgQCAngfi+1KtXr5y6pC8NLiDAavAC5tp9AVauldEvAgQIEKilQOw5FbOvZs6cWctm3nfubt26pZh9FY8sd5QvEAHiHXfckY444ogUG7uXGWBtuumm6bTTTksbbrhhae2WL6xFAgQaUUCA1YhVy7vPAqy869OwvRNgNWzpdJwAAQIEOiHwyCOPpF122SWVvZRsu+22S1dffXXxxCdHfQQivIwN1UeNGlXq5vmxx0w8CfGkk04SYNWn9FolQOBDBARYhka1BQRY1RZ1vkJAgGUgECBAgEArCsSm2o8//nhpAUblMeVPPPFEWmWVVQQYdR50t912Wzr22GPTCy+8UFpPYgzsv//+6dRTT/W4+tLUNUSAQFsEBFhtUfKa9ggIsNqj5bVtFhBgtZnKCwkQIECgSQTmzp2bPvnJT6Y33nij2BOpjCNuDoYNG1bsgRQbejvqJxCffWIMnHHGGenss88uLUyMAGvjjTdOxx9/fBo8eHD9ALRMgACBhQQEWIZEtQUEWNUWdb5CQIBlIBAgQIBAKwlEiHD//fen/fbbL02ePLm08CJuDqLd2MA9+uCov8BPfvKTdPLJJ6eJEyeW1plYOhpPIjzyyCNLa1NDBAgQWJyAAGtxQv5/ewUEWO0V8/o2CQiw2sTkRQQIECDQJAIRHg0fPjzdfvvtxSycso7YwPuyyy4rlg868hCYNGlSOuaYY9L48eNLCzJj/MUTECPEig39HQQIEMhBQICVQxWaqw8CrOaqZzZXI8DKphQ6QoAAAQIlCUSY9Oyzz5bSWmW2VYRXO+64Y+revXsp7WqkbQIXXHBBGj16dHr77bfb9oZOvirGw7bbblssI1x33XU7eTZvJ0CAQHUEBFjVcXSWfwoIsIyGmggIsGrC6qQECBAgkKlAbKIeywfLWjYWgUX//v3TuHHjin23LB/MZ9w+lEIAACAASURBVGDEZ6Dnn38+ffe730333ntvaR3r27dvsZH7V77yldLa1BABAgQWJSDAMj6qLSDAqrao8xUCAiwDgQABAgRaRaCyfGvChAlpxowZpV320UcfnQ4++ODUu3dvAVZp6m1rKD4HHXrooem6664r9YmUp512WvrmN7/Ztk56FQECBGosIMCqMXALnl6A1YJFL+OSBVhlKGuDAAECBOotED/v4gP6F7/4xfTII4+U9vTBCM2uvfba4gmEjjwFoj6nn356abPyQmHEiBHpiCOOSMsuu2yeKHpFgEBLCQiwWqrcpVysAKsU5tZrRIDVejV3xQQIEGhVgXnz5hUB1qOPPlrapt0bb7xxscfSoEGDWpU9++uOp1Huv//+6b777iutrxtssEERmm222WaltakhAgQIfJiAAMvYqLaAAKvaos5XCAiwDAQCBAgQaAWBmAkV+xwdeeSR6YUXXijtkiOkOOCAA2zeXpp4xxrae++9iydTxueiMo7YzP/CCy9Mu+++u2WlZYBrgwCBRQoIsAyQagsIsKot6nwCLGOAAAECBFpK4PDDD0/jx49PM2fOrPl1R2AWX2PGjEl77rlnzdvTQMcFIrSKfdFOPvnk9Oc//7njJ2rHOytjY6+99mrHu7yUAAECtREQYNXGtZXPKsBq5erX8NrNwKohrlMTIECAQFYC8dS3mGVTxhEBxXrrrVcsE9t8883NsikDvRNtzJ07d/7y0k6cpl1vjY3cY3Zejx492vU+LyZAgEC1BQRY1RZ1PgGWMVATAQFWTVidlAABAgQyE4hAKWa7lBVgxeWPHDkyffvb3049e/bMTEN3FhSIsRHH9ttvX2zw/7e//a0UoKFDh6aTTjopfeITnyilPY0QIEDgwwQEWMZGtQUEWNUWdb5CQIBlIBAgQIBAqwiUPQMrZtgcfPDBZl9lPsAiwIrPQ7GE8NJLL01Tp04tpcddu3ZN11xzTdpmm21KaU8jBAgQEGAZA2UJCLDKkm6xdgRYLVZwl0uAAIEWFigzwIpZVxFg7bfffi0s3liX/uKLLxabqv/xj38speMRnMWebNttt10p7WmEAAECAixjoCwBAVZZ0i3WjgCrxQrucgkQINDCAmUGWFtuuWU64YQT0oYbbljak+1auLRVufT4TLTZZpulZ599tirna8tJYgZWLF2sLGNsy3u8hgCB2gjE94BYQhxf8c+xrC6+Kg/lqE2reZzVEsI86tBMvRBgNVM1M7oWAVZGxdAVAgQIEKipQCznu+GGG9KcOXNq2k6c/LDDDktHH310WnLJJQVYNdeuXgNDhgxJv/71r0ur2TnnnJMiWLWRe/Vq6EwEPkigEhK/++676Y033kivvPJKeuedd+Zvp1K5J4qfD7Nnz07z5s1LSyyxROrevXvq0qVLEWRVjvjvyy23XOrfv3/q27dv8f8b/RBgNXoF8+u/ACu/mjRFjwRYTVFGF0GAAAECbRCYMGFCsc9R3LjU8ogbpaOOOqr4MrOmltLVP3dsun/dddcVN7BlHHvvvXcaNWpUWmmllcpoThsEWk5g1qxZxazKF154IcXTRidNmlSE1A899FD685//PH+2VcBUvl/H/VHl3yv/XPn3eE2EWmuvvXb6/Oc/n9ZYY43i33v16pU22GCDtMoqqxShWKN97xdgtdxfjZpfsACr5sSt2YAAqzXr7qoJECDQagJxMxE3Ll/+8pfTr371q5pe/qqrrlqEEnvssUdN23Hy6gvETe3w4cOLsVLGse6666bLL788rbfeemU0pw0CTS9QCY8efvjh9Jvf/CZNnz493XfffenRRx9NEWbV4ojwJ2ZkxX528VTRCLRiOXKEXI1yCLAapVKN008BVuPUqqF6KsBqqHLpLAECBAh0UuA73/lOuvbaa9OMGTM6eaYPf3sEV6ecckpafvnla9aGE9dGIJYPffKTn0yvvfZabRpY6KyxFOnWW29Nn/70pxtuxkYpQBoh0EaBuKeJBzHcfPPNaebMmemuu+5Kjz/+eDHDauGZVW08ZZtfVnmSaaWdWBK81VZbFTOyBg4cmIYNG1bM0Mr5EGDlXJ3G7JsAqzHrln2vBVjZl0gHCRAgQKCKAs8880yKZVsvvfRSFc/6z1PFzUrsfRUzvRyNJVC5CY1ZUa+++mopnY82b7/99vTZz362lPY0QqAZBR555JF0zz33pPj+fu+996bY52rBpX/1uuYIhWKfrFhqGMH4tttum2KGbo6HACvHqjR2nwRYjV2/bHsvwMq2NDpGgAABAjUQiMBg3LhxRcg0derUqt7kxGyaXXbZJZ111lnFxr6OxhKoBFixBOgvf/lLaZ2PAGvTTTctrT0NEWh0gUo4FcsEb7vttmJ54NNPP13MvIojh/CqYlyZlRUzcgcNGlSEWfFzorJXVgRHOfRXgNXofyvy678AK7+aNEWPBFhNUUYXQYAAAQJtFIgP6dOmTUsjR45M11xzTbGpb7WOWAZ27rnnFvsZ5XBDUq3rarXz7LzzzumBBx4olh6VccQSws0337yMprRBoCkEYqZVfP++//77i2WDEVyV9fe1s4ArrLBCWmuttYqnj+60007ZLC0UYHW2st6/sIAAy5ioiYAAqyasTkqAAAECmQvE06eOOOKIdOedd85/jHpHuxy/YY/QKjbjXmeddTp6Gu/LRCCeVBlBZDXDzUVd2vXXX5+23HLL1KVLl0wEdINAXgKVWUxTpkxJN9xwQ7rsssvSxIkT0zvvvJNXR9vRm3jy6Morr5x++MMfpli2XO+ZWAKsdhTPS9skIMBqE5MXtVdAgNVeMa8nQIAAgWYQiBuiCLGuvPLKdMYZZ3T4kuI8cfMxfvz4tNpqqxWbBZt91WHOLN4Ye+jstddeNXti2cIXeeaZZxZPPuzZs2cW168TBHITiO+pMevq3/7t34r9C996662ii43+vTZ+XgwYMKCYgTl69OjUrVu3utELsOpG37QNC7CatrT1vTABVn39tU6AAAEC9RWIzX5j75Ttt99+/oybys/GD+tZfNCP5SrxqPRjjjkm7bPPPqlPnz6eIlffUlat9UmTJhWhZGU/naqd+ENOdMABBxTjaLnllqt1U85PoOEEZs2alWKW4gknnFAEV42yVLA90BFcrbjiisWSyNg/MYKtsn8ZIsBqT8W8ti0CAqy2KHlNuwUEWO0m8wYCBAgQaDKBuCGaMWNGuvvuu9O3vvWtNH369A+9SYqbivigf8ghhxShQyz7ipuPsm82mqwEWV1OjIdY2hPhZhnHbrvtlk4//fQUe+M4CBD4p0As4x06dGj63e9+l2bPnt3wM64+rLaVJZJLLbVUsbQ9vuIerfLfyxgTAqwylFurDQFWa9W7tKsVYJVGrSECBAgQaBCBCLMeeuih4ulWlSdbxd5W8aS4XXfdtfgNeaMvXWmQUtSlm1Hb2J+mrABr8ODB6eKLLy5CMwcBAqn4BUI8bCOW18XRjLOuPqzOESRtsskm6ec//3nq0aNHacNBgFUadcs0JMBqmVKXe6ECrHK9tUaAAAECeQssGEwt/NvvhZd1CLHyrmVHexd17devX2lLCPv3759+9rOfpTXWWKOjXfY+Ak0jEEt3H3vssbTHHnukOXPmFOFVK36v3XjjjYu9FWNpcYRLtT4EWLUWbr3zC7Bar+alXLEAqxRmjRAgQIAAAQINJBABVlkzsLp27ZoefPDBtPbaazeQkK4SqL5A7HE1YcKEdNpppxUzsFr9+PSnP53OPvvs4ntDfJ+o5ZJCAVarj7bqX78Aq/qmzviPp3dEiNXIj6FVSAIECBAgQIBANQViCWEsJS3jiH3UYslqLFN1EGhVgVdeeaV4Et91111X7EPoSEVgtdFGGxX7LcYS9iWXXLJmLAKsmtG27IkFWC1b+tpeuBlYtfV1dgIECBAgQKDxBMoOsB5++GEzsBpvmOhxFQQipHnhhRfSWWedlW666Sbh1QeYxnLCI488Mg0ZMiT17NmzCurvP4UAqyasLX1SAVZLl792Fy/Aqp2tMxMgQIAAAQKNKVB2gGUGVmOOE73uvECEV7FM7uabby6WDbbifleLU4xw6VOf+lTxdMKtttqqJjOxBFiLq4L/314BAVZ7xby+TQICrDYxeREBAgQIECDQQgJlB1hmYLXQ4HKp8wUmTpyYLrjggmLZ4JQpU8gsQiBmqn32s59N3/3ud9Pmm2+eunXrVlUvAVZVOZ0spSTAMgxqIiDAqgmrkxIgQIAAAQINLLDyyiuXtpQpbhwfeeQRSwgbeLzoevsFJk2alMaOHZsuvvji9Prrr7f/BC32jsoG7oMHD04nnXRS2mCDDaq6qbsAq8UGVAmXK8AqAbkVmxBgtWLVXTMBAgQIECCwKIGyA6yYgWUTd2OyVQRmz55dLBmMpw0+//zzrXLZVbnOCLK22WabdPrpp6eBAwdW5ZxxEgFW1Sid6B8CAixDoSYCAqyasDopAQIECBAg0KAC8dkoAixPIWzQAup21gIRwDzwwANp5MiR6be//a09rzpQrUqIde6556Z+/fp14Azvf4sAqyqMTrKAgADLcKiJgACrJqxOSoAAAQIECDSwgD2wGrh4up61wJNPPpkOP/zw9Otf/7oIr2za3rFydenSJQ0fPjydfPLJqVevXh07yQLvEmB1mtAJFhIQYBkSNREQYNWE1UkJECBAgACBBhYoM8CKG0dLCBt4sOh6mwRi1tBLL72Ujj322HTLLbekv/3tb216nxd9uMBHP/rRdNVVV6UhQ4YUSwA7cwiwOqPnvR8kIMAyLmoiIMCqCauTEiBAgAABAg0qEDfaH/vYx9K7775byhUsu+yy6Re/+EVaY401SmlPIwTqITBnzpwiuPrWt75VLM8186o6VVhllVXSY489lnr27NmpEwqwOsXnzR8gIMAyLGoiIMCqCauTEiBAgAABAg0qEJ+NYl+ZmTNnlnIF66+/frrmmmvSaqutVkp7GiFQD4HYrH3rrbdO8fRBR/UEInAfMGBAeuKJJ4pQsPK0wva2IMBqr5jXL05AgLU4If+/QwICrA6xeRMBAgQIECDQxAIRYJU1AyueKHbeeecVs74cBJpR4K9//Wvaeeed07PPPmvpYJULHHthxREbuu+zzz4dPrsAq8N03vghAgIsQ6MmAgKsmrA6KQECBAgQINCgAvPmzSueQljWDKy99tornXjiiWmFFVZoUDHdJvDhAnGv8d///d9pl112sWywhgNlySWXLPYY6969e4daEWB1iM2bFiEgwDI8aiIgwKoJq5MSIECAAAECDSowderUtPbaa5c2A+vAAw9MI0eOTMsss0yDiuk2gQ8XePPNN9M666yTIhjO+YiZTD169Ehdu3ZNSyyxRLEULzaaj727Zs+enWbNmpV1ABf9HzRoULrzzjtTZVZWe7wFWO3R8tq2CAiw2qLkNe0WEGC1m8wbCBAgQIAAgSYWiA2Rd9hhh+KmtYwjlv7sueeeKWZQOAg0k0CEQCNGjEjjxo3L6rKiXxHy9O3bt/jq1q1bWnHFFdPnPve5tMEGG6TVV1+9CLPefvvtYtnjk08+mR599NE0bdq0YmZmhHLxz7kd8UCI8ePHp0022aTde2EJsHKrZuP3R4DV+DXM8goEWFmWRacIECBAgACBOglEoHTKKacUMy/KOH7605+mLbfcMsUNpINAswjEeP7tb39bhEKV+40cri2e1hcPTIg952JZY+zN1adPn0VugB6BV+UannvuuXTllVcWodbLL7+cXnvttaxml8Vst3iqae/evdvFLcBqF5cXt0FAgNUGJC9pv4AAq/1m3kGAAAECBAg0r8BBBx2Urr/++tI2m7711lvTZptt1u4ZE81bAVfWLAJDhw5N//u//1v3y4kAKmY4xsyqzTffPO2xxx5p44037lS/4h5qwoQJRVj08MMPF7OyYslhvY/lllsujRo1Ku2///7t6ooAq11cXtwGAQFWG5C8pP0CAqz2m3kHAQIECBAg0JwCcaMb+8jEZshlHbfffnvadNNNy2pOOwRqLhD3F/fff3+xNDb2jqrnEX+nl19++bTbbrul7bffPm2xxRZFdyqzqjrbt7jWMWPGpFh6fMstt8yfjRX/vR5HXNenPvWpIlxrz4MhBFj1qFZztynAau761u3qBFh1o9cwAQIECBAgkJlA3Pytu+666S9/+UspPYv27rjjjvSZz3ymlPY0QqAMgZiJtPXWWxfL7Oq5eXtsxr7++uuneNJnPCyhI5ubt9Vr0qRJafTo0enqq69OU6ZMqeuG7xHYHX744enQQw9ta/eLJcy9evVq8+u9kMDiBARYixPy/zskIMDqEJs3ESBAgAABAk0qEAHWq6++WsrVxU3jbbfdlj772c+W0p5GCJQhcPfdd6dvfOMbafLkyaUHOREKxxFh1Ve/+tVij6vYY67y32t5/XFfdckll6TrrruuCO/iqNdMrCFDhqQrrrgixcbubTkEWG1R8pr2CAiw2qPltW0WEGC1mcoLCRAgQIAAgSYXmDFjRrH85vXXXy/lSuPJZ7HUJ9p0EGgGgbi3iBlPEWLNnTu39EuKoCq+Ro4cmYYPH5769etXah/i+u+99940duzYYklhvfbFiuuOWVixp19bDgFWW5S8pj0CAqz2aHltmwUEWG2m8kICBAgQIECgiQXipjduur/2ta8VM0fKOGKWxNlnn53WWGONMprTBoGaCzzxxBPF36E//vGPNW9r4QYqs6xOOumkdMABB6Slllqq9D5Eg7Fs8umnn04//OEP0w033FD0oeyZWGERm9VfeOGFxWy0xc1AE2DVZag0daMCrKYub/0uToBVP3stEyBAgAABAvkIxA3eEUcckcaNG1faxtNHHnlkGjFiRFpmmWXygdATAp0QiH2XbrzxxvTuu+924iztf2sloDn22GPTIYccUjx1sJ5HzLx66qmn0hlnnFHsc1d2gBXXvtZaaxVPJNxpp50WSyHAWiyRF7RTQIDVTjAvb5uAAKttTl5FgAABAgQINL/A0KFD0+OPP17KzWbccF9++eXFHj2x2bSDQKMLzJkzJ+24447pl7/8ZemXEgFMzPw66qijiqcO1vuIv9+zZ88ulhNGiPT8888X31fKDLK6du1aBOQnnHDCYjkEWIsl8oJ2Cgiw2gnm5W0TEGC1zcmrCBAgQIAAgeYX2GyzzdIzzzxT2oWOHz8+DRs2rLT2NESglgKxafiZZ55Z2h5yC17LmmuumX784x+n9dZbb7HL5WppsPC5Z86cma688soUM8Mi4CszwIoQbYcddkixpHLAgAGLvGwBVpmjojXaEmC1Rp1Lv0oBVunkGiRAgAABAgQyFIgN3GNPqueee66U3sUNYwRY2267bSntaYRALQXinmL//fdPN998c6kbl1c2bY+HIXzhC19I8fcqtyO+t1xwwQXptNNOKzXACofYByw2tI+ZWIvaB0uAlduoafz+CLAav4ZZXoEAK8uy6BQBAgQIECBQssDVV1+dTjzxxPTmm2+W0nL37t2L/ba23nrrUtrTCIFaCkybNi3tu+++6Z577qllMx947ksvvTTtuuuuKZbM5Xq8/PLLxfeXn/70p6V3MQKsWFq5qEOAVXpZmr5BAVbTl7g+FyjAqo+7VgkQIECAAIE8BOKzUMxMiL17HnroodJmj2y33XbF0p5Y+uQg0MgC8ffn/PPPL566V1YAHF7R7iabbJJ+8IMfpA022CBrworR6aefnqZPn17qTKxYRnjccccVm7p/2CHAynr4NGTnBFgNWbb8Oy3Ayr9GekiAAAECBAjUViA+D22//fbF5tNl7VFz6qmnFptO9+jRo7YX5+wEaiwQ4Uw8+S+WxJb19ycuKZ40eOGFF6bdd9+91HY7yhlPJoy9sC6++OI0b968jp6m3e+L2Z6xfDG+3wiw2s3nDR0UEGB1EM7bFi0gwDJCCBAgQIAAgVYWiJvvV199Ne21117pySefLI1izJgx6Stf+Upp7WmIQK0EYvngt7/97XTjjTfWqokPPO9Xv/rV9L3vfS/179+/1HY709j111+fIrx+8cUXO3Oadr832oyQ8cP2wTIDq92k3rAYAQGWIVITAQFWTVidlAABAgQIEGgQgbihiyVIscnypEmTSul13CzGLIw99tijlPY0QqCWAj//+c/TySefnP7whz/Uspn3nLtPnz5FELT33nuX1ma1Gvr3f//3dM011xRPJSzrOPzww1O0u/TSS39gkwKssirROu0IsFqn1qVeqQCrVG6NESBAgAABApkJxGehuAm+/fbbS+vZKquskkaPHp222Wab0trUEIFaCYwaNSrFjMIylsVVnjoYm7bHcrwBAwbU6rJqdt6YhXXKKaekP/7xjzVrY+ETr7/++in23/rc5z4nwCpNvbUbEmC1dv1rdvUCrJrROjEBAgQIECDQAAJ/+tOf0je/+c1iA/cyjrgBHz58ePFUsAiyHAQaWSD2dTr66KPTJZdcUso+VPH3p2fPnsXSwVi22IhHBH3xPeCOO+4oxSyMYoZVhIx77rmnAKsRB00D9lmA1YBFa4QuC7AaoUr6SIAAAQIECNRKIJYOnnfeeemNN96oVRPvO28sfYrQLG4qHQQaWWDGjBlFgHXllVeWEsZEgLXZZpul448/Pn36059uWLrYVD1Cv8mTJ5dyDfG95qKLLir2+vugwxLCUsrQUo0IsFqq3OVdrACrPGstESBAgAABAnkJxOegQw89NE2YMKGUm++4+rhRjJvXgw8+OC8MvSHQAYHf/e536bjjjku/+MUvOvDu9r8lAqz4uxNL8Lp06dL+E2Tyjpdffjntu+++6de//nUpPQq3CP0OPPDAtNRSS72vTQFWKWVoqUYEWC1V7vIuVoBVnrWWCBAgQIAAgXwE4obuqaeeKpYilbV8MK7+4x//eLHh9XbbbZcPhp4Q6KDAgw8+mL7//e+nX/3qVx08Q/ve1rdv33TEEUekww47rLTQuX09XPyr4/4rvv988YtfTI888kiKZZhlHDvttFMRYq2xxhoCrDLAW7wNAVaLD4BaXb4Aq1ayzkuAAAECBAjkLhAbqZ977rlp6tSppXQ1bloPOOCAYsnVcsstV0qbGiFQS4GHH344nXDCCemxxx6rZTPzzz148OBiM/L11luvlPZq2chJJ52ULr/88jRlypRaNjP/3CuuuGK67LLL0hZbbCHAKkW8tRsRYLV2/Wt29QKsmtE6MQECBAgQIJCxQOw9c8wxxxSPsy/riAArZnzFBu4OAs0g8NJLL6V4CuEtt9xSyuV8+ctfLvZy6tq1aynt1bKRWEa42267pRdeeKGWzcw/dywTvPbaaz9w9qclhKWUoKUaEWC1VLnLu1gBVnnWWiJAgAABAgTyEbjqqqtSbKb++uuvl7IUKcKr5ZdfvgjN9ttvv3wg9IRAJwTmzJlThLJXXHFFJ87StrfG36HYhDwCrPjnZjg23XTT9Oyzz5ZyKWE2fvx4AVYp2hoRYBkDNREQYNWE1UkJECBAgACBjAXi888ZZ5yRzjrrrGL/mfj3Mo5dd9212P9q5ZVXLqM5bRCouUBlVuGYMWNq3la/fv2K/a9iI/JmOTbffPP09NNPl3I5UauYgTVs2LD3tWcGViklaKlGBFgtVe7yLlaAVZ61lggQIECAAIE8BG699dZ07LHHphdffLHUDsXT0+IJhHGz6CDQLAKxj1OEwTGbsZbHVlttlcaOHZt69+5dy2ZKO3d8HxgxYkS67rrr0uzZs0tp9+qrry42j1/4e5AAqxT+lmpEgNVS5S7vYgVY5VlriQABAgQIEKi/QHz2ufTSS9PIkSNLe/pXXHU8uj6enGb/q/qPAT2orsCsWbOKIOb666+v7okXOFvMHtphhx3SuHHjSpsxWbOL+ceJIzT60Y9+VITp77zzTq2bK84fM0/32Wef1LNnz/e0J8Aqhb+lGhFgtVS5y7tYAVZ51loiQIAAAQIE6i9w1113pe985zspNlAua+lg3Bxuu+226Zxzzkkf+9jH6o+gBwSqKBB/j44//vgijJk2bVoVz/zPUw0aNKg4/+qrr940+19FKPfaa6+leLLiG2+8URO3BU8a7cX+e7Fn2cLfhwRYNedvuQYEWC1X8nIuWIBVjrNWCBAgQIAAgfoLxDKdWIIUs6DKCq/iqpdYYoli8+kLLrig/gh6QKAGAvH36aCDDko/+9nPUmzsXs2jR48eaZdddkmXXHJJMWuyWTZwj+uYO3duWm+99Yogq4wj9uE78cQTU//+/d/TnACrDP3WakOA1Vr1Lu1qBVilUWuIAAECBAgQqKNAfOa57777ipvsN998s7SexE1qZfPpb3zjG6W1qyECZQv85je/KTZZf+KJJ4pgprNH/N2J8Hfo0KFpwoQJnT1ddu+P64tAbt111y0twNpmm22KZYQDBw4UYGU3IpqrQwKs5qpnNlcjwMqmFDpCgAABAgQI1FBg8uTJ6eKLLy5u3sqcfRU3qVtvvXW66qqrUswkcRBoVoH4e3XNNdek888/Pz3//PMdfsJn/J2Jc8WsoPi7c8UVV6RevXqV+ve2jBpVvg994hOfSK+++moZTaZNN900nXfeeWnNNdcUYJUi3rqNCLBat/Y1vXIBVk15nZwAAQIECBDIQCBmg9xxxx3F/i/z5s0rtUf/x96dwN9U7f8f//we5rlERaZyEYkUaXJLJJFblDReaUDGMlQ0mKdEKUPRnLmkSJcGUxOSISVDyKwImef///FZ9259w9f3nO9377Wn1348ejSds9daz7XOsff7rLV2jhw55K677pKBAwdaLZfCEPBLQJ+qN3r0aPnmm2/StZxQgyv966abbpKhQ4ea8CrKx4UXXmhtBpbuJaZLMbXMlAdLCKM8wvxpGwGWP+6RL5UAK/JdTAMRQAABBBCIvYDObmjbtq3oBu7OtY8NFJ1JojMddEZK1apVbRRJGQgEQkBnYA0aNEg+nE5rngAAIABJREFU/fRT+e23347vW5Xa7Edn1pVW/vLLL5cyZcqYmUJ6RGXPq1N1jLZN22prD6zy5cubp7DqrC8CrEB8VCJbCQKsyHatvw0jwPLXn9IRQAABBBBAwFuB/fv3mxtp20sHtVWZMmWS6tWry/vvv+9tIzk7AgETcDZbf+2112T58uWyYMECWbx4sVlWqEfKIEtDnJw5c8pVV11l9ma67bbbTIgV5eAqZXfZnoGlS6l13y0CrIB9aCJWHQKsiHVoUJpDgBWUnqAeCCCAAAIIIOC2gF7nfPHFF3LffffJgQMHrO+hc84550ivXr3k9ttvd7tpnA+B0Ajo0z91OeF3331nAiz9y1nKqyGvBlW5c+eWmjVrmhmLzn+zuVedn5g2AyydCaozQkuXLk2A5Wenx6BsAqwYdLIfTSTA8kOdMhFAAAEEEEDAhsDevXulQYMGMnfuXBvFnVSGLtOZNWuWZMmSxZfyKRSBIAro/YczE0v3XorLTKtT9YVa2HwK4fXXXy/PP/+8XHDBBQRYQfxwRKhOBFgR6swgNYUAK0i9QV0QQAABBBBAwA0BZ+ZG06ZNzfI9P2Zy6MbTzz77rDz00EOxvkF3oz85BwJRFdCZaBdddJG1PbDq1asnPXv2lOLFixNgRXVQBaRdBFgB6YioVYMAK2o9SnsQQAABBBBAQK9vdNP2kSNHHp/pYVNFZ5Sce+65ZuZX3rx5bRZNWQggECIBXV5ZoUIFawFWw4YNpUuXLlKkSBECrBCNkzBWlQArjL0WgjoTYIWgk6giAggggAACCCQk4DzJTDds1yeY6RJCPw5dMqh7X+kMMA4EEEDgVAL6fbVq1SqpVauWbNu2zQpSu3btpFWrVpI/f34CLCvi8S2EACu+fe9pywmwPOXl5AgggAACCCBgWeDDDz+Uzp07mxkNzj47lqsgOXLkkJUrV5qNqTkQQACB1AR0lminTp1k9+7dVpCGDBkiOgsra9asBFhWxONbCAFWfPve05YTYHnKy8kRQAABBBBAwJKAzmbQJ53pDIPly5f7El5pHXRT6sGDB8s999zjSx0scVMMAghkUEDvwzp06GCWOh88eDCDZ0vs7aNGjZI6deqctC+ffm/pvn0cCLglQIDlliTn+ZsAARYDAgEEEEAAAQTCLqDB0XfffSePPvqoCa8OHz7sS5P0JjBTpkxm9pf+nQMBBBA4nUC1atXkxx9/tPagidGjR5sA68SDAItx6rYAAZbbopzPCBBgMRAQQAABBBBAIMwCukxw1qxZ8vTTT8tPP/3ka1P0JvDTTz+VypUr+1oPCkcAgeALaPBetWpVWbZsmbXKjh07VmrXrk2AZU08vgURYMW37z1tOQGWp7ycHAEEEEAAAQQ8FNi3b5+8//778uKLL8ratWvNkj29tvHr0Cd7ff/995ItWza/qkC5CCAQEgF9AqHOwNJZozYODdh1BhYBlg1tyiDAYgx4IkCA5QkrJ0UAAQQQQAABDwX0+mXHjh0yfPhwGTFihGzfvt3X4EpnUuTMmVO+/fZbKVq06En7y3hIwakRQCCkApMnT5aOHTuaJcc2jnz58snbb78t11133UnFsYTQRg/EqwwCrHj1t7XWEmBZo6YgBBBAAAEEEHBB4OjRo7J582bRp2m9+uqrx4MrP2de6c3fHXfcIc8995zZCFkDLQ4EEEDgdAJNmjSRKVOmiM7EsnHo3lfdunWTUqVKEWDZAI95GQRYMR8AXjWfAMsrWc6LAAIIIIAAAm4L7Nmzx8xy0mWD+pffSwad9pUpU0bGjx8vxYsXd7vJnA8BBCIooN9ddevWlTlz5libPdq5c2dp1qyZ6EysEw9mYEVwkPncJAIsnzsgqsUTYEW1Z2kXAggggAAC0RHQmz1dZjNmzBh54403ZNOmTccb5+fMK61ElixZ5OWXX5b69euz91V0hhwtQcBTAX3gRNOmTWXp0qXWAqxhw4bJnXfeecoZogRYnnZ3LE9OgBXLbve+0QRY3htTAgIIIIAAAgikX+Dw4cMmuNLN0d955x1rN3uJ1FiXCt56663SvXt3s/cVBwIIIJCIwDPPPCNvvvmm6KxSG4cGVBpgNWrU6JTFEWDZ6IV4lUGAFa/+ttZaAixr1BSEAAIIIIAAAkkKfPLJJ7JgwQKzUfuff/6Z5Lu9fbmGV1WqVJH+/ftLhQoVTGHsfeWtOWdHIAoCu3btEt3/avr06dYC+cKFC8sLL7wgN954IwFWFAZRCNpAgBWCTgpjFQmwwthr1BkBBBBAAIFoC3zxxRcye/Zs+fTTT80j5p3rlaC0WoOqXLlySZcuXeSee+4xTyDkQAABBBIR0CcBavC9YcOGRF7uymv0IRO6B1aJEiUIsFwR5SRpCRBgpSXE/0+XAAFWuth4EwIIIIAAAgi4IKBBkLOHle5z9fHHH8usWbNk/vz5Zm+YI0eOmFL83ufqxKZqve+77z55/PHHpUiRIi5IcAoEEIiDgD5xsHXr1vLee++Zh1DYOPT7qmvXrtKiRQuzZ9+pDpYQ2uiJeJVBgBWv/rbWWgIsa9QUhAACCCCAAAKnENAN2XWPKw2tVq5cKevWrTPBla2bu/R0Sr169UT3sCldunR63s57EEAgpgIjR46Uvn37Wp19pQFWnz59zBMIU1vmTIAV0wHpYbMJsDzEjfOpCbDi3Pu0HQEEEEAAATsCer3hzLbSv+/du1emTZsmY8eOld9//92EVjt27AjcTKtT6Vx88cXy1FNPSa1atURv+jgQQACB0wk4odH27dtN8D169GirAX3ZsmXNgyZuuOGGVKtJgMUYdluAAMttUc5nBAiwGAgIIIAAAgggYENg9+7d8vrrr8v7778v+mRB3ZR927ZtcvTo0VAEV2qUJ08eM4uhffv2kiNHDhtslIEAAhERePXVV6V3797WH0ihSwd1/6vcuXMTYEVkLIWhGQRYYeilENYxIwFWyl9Sg7Y3RQi7giojgAACCCAQaoGU+1npdcHGjRtNWKWPij948KCZgaVP39LZV2E7tO46Q+GWW26Rl19+2dwIcu0Ttl6kvgj4I6DfFTrj9Nlnn5UVK1ZYrYR+b3Xq1Mns13e67yxmYFntllgURoAVi26230g3AiyttbM0wH4LKBEBBBBAAAEEbAro3lQa6OjMKQ2kFi1aJHPnzpWvvvrKbLx+4MCB4zO89bX6l3O9EebQR5cMvvvuu5ItW7bjyyFtulMWAgiEU+C3336TAQMGyGuvvWZ16aBq6VMHn376abnttttS3f9KX0eAFc6xFeRaE2AFuXdCXLdkAizdUFUvVjdv3mweG61PCnIuSkNMQNURQAABBBBAIB0CKWdcpePtoXmL3thdffXVMmHCBPMEr9Q2QQ5Ng6goAghYE9BA/6233jJL+Jz7LluF63fVQw89ZJYtpvb0QacuBFi2eiU+5RBgxaevrbY0kQBLQ6qdO3fKxIkTzVMzdL8K/UJ0foEN86+pVrEpDAEEEEAAAQRCJaA3dZdeeqnok8MKFSrEssFQ9R6VRcBfgf3795tl1G3btjUVsR1gaWjVsmVL6dq1a5oQBFhpEvGCJAUIsJIE4+WJCaQVYOmvBmvWrJF27drJnDlzuHBLjJVXIYAAAggggEDIBfTHugoVKsjw4cPlwgsv5Boo5P1J9RGwJaD3V/rEwcmTJ5sHPvixYkW/vypVqiQ9evSQq666Ks2ZowRYtkZHfMohwIpPX1tt6ekCLN3X4rPPPjNrtpctW2b9VwOrEBSGAAIIIIAAAgj8T0Bv/sqXLy+DBw+WSy655Pisc4AQQACB0wloWLVw4UL58MMPzfeHs9Ta9oqVTJkyyd133y0vvfRSmuGVtocAi3HttgABltuinM8IpBZg6cyrKVOmSP/+/U14xYEAAggggAACCMRBQG84K1euLH369JHLLrssoZu/OLjQRgQQSF1Avze2bt1qVqw888wz8uuvv/o2a1PrUrRoUfPkwXvvvTehbiPASoiJFyUhQICVBBYvTVwgtQBr3rx5Zr20fgnrLwkcCCCAAAIIIIBAlAWcmRLXXXeddO/e3Swf5EAAAQROJ6DfG3/88YfMnj1bFi9ebGY86UOv/Dy0TrVr1zZPTc2cOXNCVSHASoiJFyUhQICVBBYvTVzgVAHW6tWrzdMq9Gk7tqe7Jl5zXokAAggggAACCLgnoDdwdevWlU6dOknZsmWZeeUeLWdCIJICS5cuNcsFdbXKG2+8IbqCxe/wSqHPOecc6dixo3kCYaIHAVaiUrwuUQECrESleF1SAicGWPrv7733nrRp08Z8CXMggAACCCCAAAJRF9AZC3fddZdZclOsWDGzH0ycD/XQgx8y4zwKaPuJAro/8JIlS+SHH36QP//8UxYtWiRff/217N6927zUmcXpp5x+d1WtWtU8PT5btmwJB/EEWH72WjTLJsCKZr/63qoTAyx94qBOm9cvPQ4EEEAAAQQQQCDqArrZ8b///W8zY+G8884jtPnfjfj+/ftFZ+WvXbtWDh06FPVhQPsQ+JuAzqTatm3b3/ay2rNnjyxfvtzMuNLQKogBr86+6tWrl9x+++1J9SgBVlJcvDgBAQKsBJB4SfICJwZYX3zxhTRu3Fj0C5oDAQQQQAABBBCImoDOknBmGBUoUMA8qatp06ZSuHDhqDU1ofbotaDevKqJXv+NGzdOvvvuOzl48KD89ttvZn+fI0eOBPJmPaEG8iIEkhTQz4LuAawhlYZYJwZVQQyutM76Ob788stl0qRJkiVLlqRaTYCVFBcvTkCAACsBJF6SvEDKAEu/qPXJg/orZBC/mJNvHe9AAAEEEEAAAQT+LuAEWLrMpkmTJnL99ddLwYIFY3vt4yx7evnll+XLL7+Un376STZt2hRbDz4vCIRRQAOo/Pnzy+jRo02IlexBgJWsGK9PS4AAKy0h/n+6BFIGWNu3b5fBgwfLCy+8wEVLujR5EwIIIIAAAggEWcDZ26pevXpms/YSJUpI9uzZg1xlz+rmzDLR5YG6/5c+QU2vBfkR0zNyToyAZwI64+q+++6TAQMGJLzvVcrKEGB51jWxPTEBVmy73tuGpwyw1q1bJ08//bRMnjyZixdv2Tk7AggggAACCFgW0MBGZyhoWNOqVSvzpC5nKaHlqgSiOL0G1JlWDz74oMybN88smeJAAIFwCuTIkcNsLq+zSdNzEGClR433nE6AAIvx4YlAygDrl19+kccee0y++uorAixPtDkpAggggAACCPghoDdn5cuXl2HDhplZV7ly5fKjGoEoU6/9NLjTJ6o1bNjQ7HdFeBWIrqESCCQt4CyJ1s9xqVKl0v1ZJsBKmp43pCFAgMUQ8UQgZYClT5rp0KGDzJgxgwDLE21OigACCCCAAAI2BfTmLmvWrGaj9r59+x5/rDzL5ERuvfVWmT17drpveG32I2UhgMCpBTR40v2LBw0alKH7NwIsRpjbAgRYbotyPiOQMsDasGGDdO3aVSZMmJChL0BoEUAAAQQQQAABPwU0uMqWLZuZaaV7O+XOndvP6gSqbL32e/TRR83TBg8cOBCoulEZBBBIXMAJnVauXGmC+owcBFgZ0eO9pxIgwGJceCKQMsDSi5ixY8eaZYT8MukJNydFAAEEEEAAAY8FdC+YM844Q/r37y8333yzx6WF7/SbN2+Wpk2bmicOciCAQDgFNKQ/66yz5Ouvvzb7+WX0IMDKqCDvP1GAAIsx4YlAygBLC/jPf/4j99xzD9PJPdHmpAgggAACCCDghYDezOlsK72R06Vx+mMcs65OLa02I0eOlMOHD3vRFZwTAQQsCOhm7fo5rlKlijhPV81IsQRYGdHjvacSIMBiXHgicGKApXsh6K9yW7Zs8aQ8TooAAggggAACCLgpkCdPHrMx+1VXXSVt2rSRIkWKHD89M8r/Lr1nzx5p3bq1TJw40c0u4FwIIGBRQGeY6pPj9Ymqbj2QggDLYgfGpCgCrJh0tO1mnhhgbd26VQYPHiwvvfQSywhtdwblIYAAAggggEBCAs7ymTJlypgZCPfee6+ULFnSPF2PI3WBmTNnSpcuXcy+YBwIIBA+AQ2s9KEU7dq1k0KFCrnWAAIs1yg50f8ECLAYCp4InBhg6b/rUwg7duwoq1at8qRMTooAAggggAACCKRHIFOmTHLeeeeZ0KpChQpmuWDx4sXNqTS8YsbV6VUHDhwoL774ouzatSs9/LwHAQR8FNDwSvf1e+KJJ+SCCy5wtSYEWK5ycjL9M/n/8ScyA8EDgRMDLC1i586dMmTIEDML6+DBgx6UyikRQAABBBBAAIHEBDSY0idsXXnllVK+fHkpV66c1K9fX3LmzElglRjh8Vd17txZhg0bhluSbrwcAb8FdE+/OnXqSPv27eXCCy90/TNMgOV3D0evfAKs6PVpIFp0qgBLK/bDDz9It27dZPr06a5/QQai4VQCAQQQQAABBAIncOISQJ1pVb16dcmePbtcf/31UrFixcDVOUwV6tSpk7zyyitc24Wp06hr7AXy589vZl61bNlSdNm0F7NNCbBiP8xcByDAcp2UE6pAagGWfjF+99130rVrV/N4ViYAMl4QQAABBBBAwGuBLFmymJlW1113ndmcWJcJXnHFFaZY9rfKuD4zsDJuyBkQsClQtGhRs+dVo0aNzD5/Xt2TEWDZ7NV4lEWAFY9+tt7K0wVYWpnvv/9eevfuLV9++aVZTuhF4m+90RSIAAIIIIAAAlYFnPBJrzv0n/WvY8eOmb/rTVndunWldOnSZqlgqVKlpGzZspItWzardYxDYfrksqFDhxp7DgQQCKaA832p34UdOnQws1ALFizoaWUJsDzljeXJCbBi2e3eNzq1AMspWf//8uXLRZ9ao/tibdy4kYse77uFEhBAAAEEEIiUgN4c6TVFjhw5pGrVqlKtWjUTUul/10fC/+Mf/xBdJuO8LlKND1BjRo0aJX379pX169cHqFZUBQEEUgpogKX7XOlDFypVqmSWUHt9EGB5LRy/8xNgxa/PrbQ4rQDLqcSePXtk9erVMmvWLBkwYIDZ6F2PlL+oWqkwhSCAAAIIIIBA4ARSztDWf9anBV5++eVmv5aaNWseD6f0JkmDKp1NkDdv3sC1I+oV+u233+Sxxx6TqVOn8oNk1Dub9oVOQL8fdRZq7dq15fHHHzchv62l0wRYoRsuga8wAVbguyicFUw0wHLCKg2yNm3aJEeOHJFt27bJlClTzKOYeVphOPufWiOAAAIIIJCsgN7o6P5U5513nrnBOuecc8wTAZ2lgc41Q548ecyMKw2qMmfObGZXsXQtWW13X6/+LVq0kHHjxnm2l467NeZsCMRHQGdaTZgwwSyj1pDfVnilwgRY8RlntlpKgGVLOmblJBNgnUhz9OhR2b9///GN4GNGR3MRQAABBBCIrYDeWGkopZuu642P/sURDoGxY8eaZYS//vprOCpMLRGIqIATUOn35y233CJ9+vQxwZUf36cEWBEdZD42iwDLR/woF52RACvKLrQNAQQQQAABBBCIooDOor/33ntl2rRpzMKKYgfTptAI6FLrAgUKmCW9RYoUMT8I+PXALAKs0Ayb0FSUACs0XRWuihJghau/qC0CCCCAAAIIIJARAb1BXrx4sVlKuHTpUpZ1ZgST9yKQhICzzFpnr+qy67fffts80MKPGVcnVpsAK4mO5KUJCRBgJcTEi5IVIMBKVozXI4AAAggggAAC4RVwli116dJF3nrrLfnzzz+ZiRXe7qTmIRHQ0Er3A9Qlgk899ZTcfPPNZhm2cy/mdzMIsPzugeiVT4AVvT4NRIsIsALRDVQCAQQQQAABBBCwKqBBVsuWLWXSpEmyb98+84AeDgQQcEfAmW2loZU+6EI3Zn/kkUfkmmuuMQXoPViQDgKsIPVGNOpCgBWNfgxcKwiwAtclVAgBBBBAAAEEEPBcwNlrp3PnzvLZZ5/JL7/8Eribas8RKAABlwX0c6WzrIoXLy65c+c2gdXDDz8s+fLlC/TniwDL5YHA6YQAi0HgiQABliesnBQBBBBAAAEEEAiNwOzZs2Xo0KEyf/582b59u6n3sWPHQlN/KoqAbQFnhpWWe/bZZ0uJEiVMSJU1a1b55z//KY0aNTJLBsNyEGCFpafCU08CrPD0VahqSoAVqu6isggggAACCCCAgKsCzkysQ4cOyZAhQ8zG7qtWrZKff/5ZDhw4EOhZI65CcDIETiHg7Bmn+1WdeeaZJqwqVKiQ+Wd9iqAGPxUrVpTrr79eLrjgAvPf9P5KA+AgbM6eaKcSYCUqxesSFSDASlSK1yUlQICVFBcvRgABBBBAAAEEIi1w8OBB+e6770RnZe3evZsAK9K9TePSEnBmWmXJkkXOO+88E1KVLl1aChcubDZhj8pBgBWVngxOOwiwgtMXkaoJAVakupPGIIAAAggggAACrgjoNaIz+0RPGLRNp11pJCdBIBWBlGM/DkgEWHHoZbttJMCy6x2b0giwYtPVNBQBBBBAAAEEEEAAAQQQOEmAAItB4bYAAZbbopzPCBBgMRAQQAABBBBAAAEEEEAAgfgKEGDFt++9ajkBlleyMT8vAVbMBwDNRwABBBBAAAEEEEAAgVgLEGDFuvs9aTwBliesnJQAizGAAAIIIIAAAggggAACCMRXgAArvn3vVcsJsLySjfl5CbBiPgBoPgIIIIAAAggggAACCMRagAAr1t3vSeMJsDxh5aQEWIwBBBBAAAEEEEAAAQQQQCC+AgRY8e17r1pOgOWVbMzPS4AV8wFA8xFAAAEEEEAAAQQQQCDWAgRYse5+TxpPgOUJKyclwGIMIIAAAggggAACCCCAAALxFSDAim/fe9VyAiyvZGN+XgKsmA8Amo8AAggggAACCCCAAAKxFiDAinX3e9J4AixPWDkpARZjAAEEEEAAAQQQQAABBBCIrwABVnz73quWE2B5JRvz8xJgxXwA0HwEEEAAAQQQQAABBBCItQABVqy735PGE2B5wspJCbAYAwgggAACCCCAAAIIIIBAfAUIsOLb9161nADLK9mYn5cAK+YDgOYjgAACCCCAAAIIIIBArAUIsGLd/Z40ngDLE1ZOSoDFGEAAAQQQQAABBBBAAAEE4itAgBXfvveq5QRYXsnG/LwEWDEfADQfAQQQQAABBBBAAAEEYi1AgBXr7vek8QRYnrByUgIsxgACCCCAAAIIIIAAAgggEF8BAqz49r1XLSfA8ko25uclwIr5AKD5CCCAAAIIIIAAAgggEGsBAqxYd78njSfA8oSVkxJgMQYQQAABBBBAAAEEEEAAgfgKEGDFt++9ajkBlleyMT8vAVbMBwDNRwABBBBAAAEEEEAAgVgLEGDFuvs9aTwBliesnJQAizGAAAIIIIAAAggggAACCMRXgAArvn3vVcsJsLySjfl5CbBiPgBoPgIIIIAAAggggAACCMRagAAr1t3vSeMJsDxh5aQEWIwBBBBAAAEEEEAAAQQQQCC+AgRY8e17r1pOgOWVbMzPS4AV8wFA8xFAAAEEEEAAAQQQQCDWAgRYse5+TxpPgOUJKyclwMrYGDh69KgcPHhQ9O9qyYEAAggggAAC8RD4v//7P8mcObNkyZJFMmXKJPrvHAgggEAYBQiwwthrwa4zAVaw+ye0tSPASr7rDh06JBs2bJADBw7I77//LvPmzZP169fL4cOHCbGS5+QdCCCAAAIIhE5Aw6rs2bNL8eLFpXTp0nLuueeaf9f/rmGWXl/p3/W/5cyZU/LmzWuCLj30NfzoFboup8IIRFqAACvS3etL4wiwfGGPfqEEWIn38bFjx2TBggWyZs0a6dWrl/z6669chCbOxysRQAABBBCIrEDKUEr/Wf/KmjWrVKxYUSpVqiRXXHGFCbmcgEsDrUKFCknu3LmZuRXZUUHDEAiPAAFWePoqLDUlwApLT4WsngRYaXeYGulMq7lz50qbNm3kzz//5JfTtNl4BQIIIIAAAgikEHCCrRw5csjFF18sderUkQsuuMDMzDrzzDOlZMmSkj9/fgItRg0CCFgXIMCyTh75AgmwIt/F/jSQACtt90WLFsmECRNkyJAhJrhi2n/aZrwCAQQQQAABBE4WcPbJSnktof9NlyHWrl3b/F0DrQsvvFAuuugiswyRAwEEEPBagADLa+H4nZ8AK359bqXFBFipM+sF5eLFi6Vnz54yffp0OXLkiJU+oRAEEEAAAQQQiK+ABljVqlWT6tWrm/2zypQpI1WqVJFs2bLFF4WWI4CApwIEWJ7yxvLkBFix7HbvG02AdepfR9Vl586d0r59e/n4449FN25n5pX345ESEEAAAQQQiLtAyqcZ6j5a5cuXN4GW7qF19dVXS7ly5Y4/9ZBrk7iPFtqPgDsCBFjuOHKWvwQIsBgNnggQYKUeYD333HMydOhQE2RxIIAAAggggAACfgloqJUnTx6pXLmylCpVSi677DK54YYbzN5ZHAgggEBGBQiwMirI+08UIMBiTHgiQIB1alZdMtixY0dZvXo1M688GXmcFAEEEEAAAQSSEUg5M6tEiRJmI3idjfXggw9KwYIFkzkVr0UAAQT+JkCAxYBwW4AAy21RzmcECLBOPRBat24t48ePl4MHDzJSEEAAAQQQQACBQAk4TzTMly+fVKhQwSwv7Nevn+i/pwy6AlVpKoMAAoEVIMAKbNeEtmIEWKHtumBXnADr5P5Zvny5tGnTRubNm8fsq2APX2qHAAIIIIAAAiLmyYUVK1aUAgUKyGuvvSa5c+c2QRZ7ZDE8EEAgEQECrESUeE0yAgRYyWjx2oQFCLBOpurRo4eMGDFCdu3albAjL0QAAQQQQAABBPwW0CCrZMmScskll8jgwYMlc+bMfleJ8hFAIAQCBFgh6KSQVZEAK2QdFpbqEmD9vaf018oWLVrI6NGj+dUyLIOYeiKAAAIIIIDA3wT06YXFihWTu+++Wx577DGWFTLcaIQ1AAAgAElEQVQ+EEDgtAIEWAwQtwUIsNwW5XxGgADr5IHwyCOPyNixYwmw+IwggAACCCCAQGgF9Ec5nZGlTy7s0qWLVK1aNbRtoeIIIOCtAAGWt75xPDsBVhx73UKbCbD+jnzs2DHRAGvcuHEW9CkCAQQQQAABBBDwXkDDrEcffdQ8YTl79uySKVMmfqjznp0SEAiNAAFWaLoqNBUlwApNV4WrogRYBFjhGrHUFgEEEEAAAQSSFXCeWqhPLNQQq0aNGibI4kAAAQRUgACLceC2AAGW26KczwgQYJ08EJo3b26WEHIggAACCCCAAAJRE9DZV3369JF//etfcvbZZ5sbVw4EEIi3AAFWvPvfi9YTYHmhyjkJsE4xBnQJ4ZgxYxgdCCCAAAIIIIBAJAV0Rlb9+vXl/vvvlyuvvNLslcWBAALxFSDAim/fe9VyAiyvZGN+XmZgnTwAOnfuLG+++abs378/5qOD5iOAAAIIIIBAVAU0xCpQoID07NlTbrvtNsmcOXNUm0q7EEAgDQECLIaI2wIEWG6Lcj4jQIB18kCYOXOmaIi1dOlSRgkCCCCAAAIIIBBJAQ2w9NC/Dxw4UG655RbJnz8/m7tHsrdpFAKnFyDAYoS4LUCA5bYo5yPASmUMHDlyRO69916ZNm0aF3F8ThBAAAEEEEAg0gLOBu9t2rSRRo0aSdmyZSPdXhqHAAInCxBgMSrcFiDAcluU8xFgpTIG9EJOlxD269dPNm/ezEhBAAEEEEAAAQQiK+DMxNIb2Nq1a5t9sW644Ybj14nO/48sAA1DAAGeQsgYcF2AAMt1Uk6oAiwhPHkc6IXanj17pHHjxqLLCXVGFgcCCCCAAAIIIBB1Ad0Hq2LFiqIPtLn99tvNdSIBVtR7nfYhIARYDALXBQiwXCflhARYpx8D33zzjTRr1kzWr19vLt70Io4DAQQQQAABBBCIsoCGWBdccIG0atVK7rvvPgKsKHc2bUPgfwIsIWQouC1AgOW2KOczAszAOv1AmDVrljRp0kR27NhBgMVnBgEEEEAAAQRiIaA3s8WLFxfdF0uvgzgQQCDaAgRY0e5fP1pHgOWHegzKJMA6fSerz/fffy//+te/ZP/+/cdDvxgMDZqIAAIIIIAAAjEW0BvaokWLSocOHcxMLJYTxngw0PTICxBgRb6LrTeQAMs6eTwKJMBKrJ9XrlxpLt6WL1/OTKzEyHgVAggggAACCIRcwJmJ1blzZ2nYsGHIW0P1EUAgNQECLMaG2wIEWG6Lcj4jQICV+EDYunWrLFu2zGxqevjwYfPGY8eOJX4CXokAAggggAACCIRMQG9sS5YsKd27d5ebbropZLWnugggkIgAAVYiSrwmGQECrGS0eG3CAgRYCVOZF+pm7gcPHpRff/1VevfuLZMnTzYhFhu8J+fIqxFAAAEEEEAgPAJ6/VO1alXp0aOHVKlSJTwVp6YIIJCQAAFWQky8KAkBAqwksHhp4gIEWIlbpfVK9oZIS4j/jwACCCCAQHQE9M99/RFr586dZr/MRYsWyZdffmn+fuTIEdNQ/f9Hjx41f+kR5h+8NMS6//77pV27dlKkSBGeThidoUxLEBACLAaB2wIEWG6Lcr7jF1J6MbV7925EMiigF3ZOIJjBU/F2BBBAAAEEEAiwgP6Zr4fzZ79TVee/O+HWli1b5O2335Zp06aJbkWgWxDs27fP/BXGbQi0fbqUUIOsPHnyBLiHqBoCCCQjQICVjBavTUSAACsRJV6TtAAzsJIm4w0IIIAAAggggEDSAnrN9fvvv8vEiRPNFgTbtm2TP//80/xdZ2iFYXaWBlj619ChQ6V+/fqSLVu2pB14AwIIBE+AACt4fRL2GhFghb0HA1p/AqyAdgzVQgABBBBAAIHICTjXXRoCaWj1ySefyLhx48zsrF9++UV27NgR6CDLmWGmN7vvvPOO1KpVS7JkyRK5fqJBCMRNgAArbj3ufXsJsLw3jmUJBFix7HYajQACCCCAAAIBEdBQ6MCBA/Lyyy/LggULzINi9KnHQV5iqHU+//zzZcyYMVK6dGn2wwrIWKIaCKRXgAArvXK8LzUBAizGhicCBFiesHJSBBBAAAEEEEAgKQFnCeH06dPlvffeM0HW3LlzAzkjy5mJ9cADD0ifPn0ka9asJ+0HllTjeTECCPgqQIDlK38kCyfAimS3+t8oAiz/+4AaIIAAAggggAACKQV09tXixYtl1KhR8uOPPwY6yOrVq5e0aNGCAIshjECIBQiwQtx5Aa06AVZAOybs1SLACnsPUn8EEEAAAQQQiJJAyicbHjx40CwrnDBhgsyaNcvsk6VHkDZ8z5w5s0yZMkWqVq0apW6gLQjESoAAK1bdbaWxBFhWmONXCAFW/PqcFiOAAAIIIIBAeAT0Wm3nzp1mFtbo0aPl888/l/379wcqxKpWrZp8+OGHkilTpvDAUlMEEDguQIDFYHBbgADLbVHOd/wXPL0w2r17NyIIIIAAAggggAACARZYsWKFzJgxQ959911ZunRpYDZ611lYzZs3l549ewZYj6ohgEBqAgRYjA23BQiw3BblfARYjAEEEEAAAQQQQCBEAvqjo86++vnnn+XZZ5+VOXPmyNGjR31vgd78FixYUMaPHy+XXHJJoGaH+Y5DBRAIgQABVgg6KWRVJMAKWYeFpbosIQxLT1FPBBBAAAEEEEDgL4FVq1bJK6+8ImPHjpU9e/Yc/2HSDyPdt0tnYdWoUUPGjBljNnTnQACB8AgQYIWnr8JSUwKssPRUyOpJgBWyDqO6CCCAAAIIIBB7AWej923btplZWG3btpU//vjDd5f8+fPLY489Jq1bt/a9LlQAAQQSFyDAStyKVyYmQICVmBOvSlKAACtJMF6OAAIIIIAAAggESODw4cOyYcMGufrqq+XAgQO+7oulwdo111wjEydONBu6MxMrQAOFqiBwGgECLIaH2wIEWG6Lcj4jQIDFQEAAAQQQQAABBMItcOzYMdm3b5+UKFHCBFj6l19H1qxZpWHDhjJ48GACLL86gXIRSFKAACtJMF6epgABVppEvCA9AgRY6VHjPQgggAACCCCAQPAENMQqWbKkHDx48PiPlH7Usnr16vL666/LmWeeSYjlRwdQJgJJChBgJQnGy9MUIMBKk4gXpEeAACs9arwHAQQQQAABBBAIpsDvv/9ulvFt3brVt6cB6tLBRo0aydChQ0VvjDkQQCDYAgRYwe6fMNaOACuMvRaCOhNghaCTqCICCCCAAAIIIJCEwMqVK6VBgwayceNG32ZiXXvttdK/f38pXbp0EjXnpQgg4IcAAZYf6tEukwAr2v3rW+sIsHyjp2AEEEAAAQQQQMATgaNHj8rcuXPlkUcekXXr1vkyE0tnYTVr1kx69+7NLCxPepmTIuCeAAGWe5ac6b8CBFiMBE8ECLA8YeWkCCCAAAIIIICArwK6H9b7778vXbp0kR07dvhSlxo1akj37t3loosu8qV8CkUAgcQECLASc+JViQsQYCVuxSuTECDASgKLlyKAAAIIIIAAAiESWL9+vfTr10/GjBkjOivL5qEzsDJlyiSPP/64dOjQgVlYNvEpC4EkBQiwkgTj5WkKEGClScQL0iNAgJUeNd6DAAIIIIAAAgiEQ2DRokVmFtbs2bN9WUp48803yzPPPCNlypQJBxi1RCCGAgRYMex0j5tMgOUxcFxPT4AV156n3QgggAACCCAQBwG91psxY4Z07dpVlixZYj3Eyp07t9kH67777hOdlcWBAALBEyDACl6fhL1GBFhh78GA1p8AK6AdQ7UQQAABBBBAAAGXBPbs2SODBg2SIUOGyP79+62GWBpaNWnSRDp27CiFChVyqUWcBgEE3BQgwHJTk3OpAAEW48ATAQIsT1g5KQIIIIAAAgggECiBlStXmqV8U6dOtV6v8847TwYMGCA33ngjs7Cs61MgAmkLEGClbcQrkhMgwErOi1cnKECAlSAUL0MAAQQQQAABBEIu8PHHH0uPHj1k+fLlVluis7A0wNJlhFmyZLFaNoUhgEDaAgRYaRvxiuQECLCS8+LVCQoQYCUIxcsQQAABBBBAAIGQC+zdu1dat24tEydOtLqMUNkuvfRSGThwoFxyySUhV6T6CERPgAAren3qd4sIsPzugYiWT4AV0Y6lWQgggAACCCCAQAoBZwN1nX2lIdbcuXOt+ujMq5EjR5plhBwIIBAsAQKsYPVHFGpDgBWFXgxgGwiwAtgpJ1RJ+yhTpkxy7Ngx82upXoDqL6ibN2+WXbt2Wf8FNfhi1BABBPwS0O+nrFmzmo2azzjjDPPd5XxvaZ30/+u/O8eJ/+5XvSkXgTgJ6GfwoYceko8++kiOHDlitelPPvmkNG/e3Hw/cCCAQHAECLCC0xdRqQkBVlR6MmDtIMAKWIecojoaXB08eFCGDRtmpt47QZb+XY+UN4PBbw01RACBKAtoIKUXwc53kzPjQ/+ePXt2qVKlitx6661So0YNKViwoHkt32FRHhG0LYgC+nncvXu31K9fX7777jtrVXS+ByZNmmS+CzgQQCA4AgRYwemLqNSEACsqPRmwdhBgBaxDUlRH++bQoUNms9XBgwcHt6LUDAEEEEiHgF4s6w1tzZo15bHHHpNKlSqZMEuXGenMLWZnpQOVtyCQoIB+1u6991757LPPzLWGrUM/17qR/FVXXcXTCG2hUw4CCQgQYCWAxEuSEiDASoqLFycqQICVqJTd1+mU/o0bN8qVV14p+/fvZ4aCXX5KQwABCwLO7Cz9c8iZtZUrVy6zvKhJkyYmyMqTJ4+ZucWBAALuC+zbt0+uu+46WbFihfsnP80Z27RpI+3bt5d8+fJZLZfCEEAgdQECLEaH2wIEWG6Lcj4jQIAVvIGgv4R+/fXX8vDDD8u2bduCV0FqhAACCHgsoOFW0aJFzfegztDKnz+/FChQwARdTvDlcRU4PQKxELjjjjtk+vTpVvfCypEjh8yePVtKlSoVC2MaiUAYBAiwwtBL4aojAVa4+is0tSXAClZXaX/MmDFDWrVqZTZp1xs1Z6+rYNWU2iCAAALeCeh3n7OEMHPmzFKvXj25++675R//+IcULlzYbBTPgQACGRPQz9iaNWvkhhtukK1bt2bsZEm8W8udNWuWXHzxxQTSSbjxUgS8FCDA8lI3nucmwIpnv3veagIsz4kTLkD7YsGCBSa8WrZsGcsGE5bjhQggEAcB3RdLb7R1E/jLL79cihUrJhpucSCAQPoEnCeE1qpVS+bPn2/tBzMNsJ5//nmzB1e2bNnSV3nehQACrgoQYLnKycn0ydP/j8f0MBA8ECDA8gA1nafcuXOneay1TuV3+iWdp+JtCCCAQKQEUu6Xpf+sIda1115rZmadddZZxwN/lhdGqttpjAUBvd7QpwI2bdrUPPHY1lG2bFmZPHmyWRrMgQAC/gsQYPnfB1GrAQFW1Ho0IO0hwApGR+hN15gxY6Rv376ydu1aZl8Fo1uoBQIIBFRAvzP1YvuRRx4xy5AaNmxoliIRYAW0w6hWoAX0WrBIkSKyd+9ea/XUz++PP/5olgRzIICA/wIEWP73QdRqQIAVtR4NSHsIsILREfrUwZYtW8p7771nbQp/MFpOLRBAAIH0CThhlW7w3qxZM7nzzjvNskIOBBBIXuCBBx6QDz74IPk3ZuAdU6ZMMU9bdp5CmoFT8VYEEMigAAFWBgF5+0kCBFgMCk8ECLA8YU3qpNoHuvfEU089JfPmzUvqvbwYAQQQQEDMDXCDBg3MskLdV4eZWIwKBJITWL58uVStWjW5N2Xw1fpghkGDBkmWLFkyeCbejgACGRUgwMqoIO8/UYAAizHhiQABliesSZ+0f//+5iJuz549Sb+XNyCAAAIIiNnQvVChQnL//fdL27ZtRTd9J8hiZCCQmIBeD+p+VPp3W08/1tmTS5culezZsydWSV6FAAKeCRBgeUYb2xMTYMW2671tOAGWt76Jnr1Tp04ybNiwRF/O6xBAAAEETiGggZXeFOtywubNm0vRokVxQgCBBAX0KcijRo2ytg+nfl43bNgguXLlSrCGvAwBBLwSIMDySja+5yXAim/fe9pyAixPeRM++ZNPPimvvPJKwq/nhQgggAACqQvkzp1bqlevLi1atDB77HAggEDaAqtXr5bLLrvMaoC1aNEiKV68eNqV4xUIIOCpAAGWp7yxPDkBViy73ftGE2B5b5xWCdoHOgOLACstKf4/AgggkLhAtmzZpHz58tK+fXupU6dO4m/klQjEVODAgQPmqYC2lhAq8xNPPGGugTgQQMBfAQIsf/2jWDoBVhR7NQBtIsAKQCeICDOwgtEP1AIBBKIloPtgnX/++dKtWzcTYrEnVrT6l9a4K6BPRK5fv758+eWX7p44lbPpDXPevHnl119/tVIehSCAQOoCBFiMDrcFCLDcFuV8RoAAKxgDgQArGP1ALRBAIHoCelFerFgxGTBggNSsWdPa8qjoSdKiqAvoNeHnn38uDRs2tNJU/WxqqPzHH3+Yv2v5HAgg4I8AAZY/7lEulQAryr3rY9sIsHzET1H0U089ZTZxtzltPxgtpxYIIICAHYHSpUvLiy++aPbEYiaWHXNKCZeAfi42b94sZcuWtRYmOQGWzpYkwArXeKG20RIgwIpWfwahNQRYQeiFCNaBAMv/TtWLt6lTp5olLvo4aQ4EEEAAAfcF9OK8WrVq0qdPH3ODTojlvjFnDLeAE2BVqFBBDh06ZK0xP//8s9l7iwDLGjkFIXCSAAEWg8JtAQIst0U5nxEgwArGQDh69Kh5Wtb48eO5gAtGl1ALBBCIoIDeoLdq1UoeffRROeussyLYQpqEQMYEtm/fLrfffrssXLjQ2vWIbuKufzELPWN9x7sRyIgAAVZG9HjvqQQIsBgXnggQYHnCmtRJ9YZK/+rdu7dZRvjnn38m9X5ejAACCCCQuIB+3w4cOFDuvvtu0ScVciCAwF8C+/fvlxEjRkiXLl2sBVg6M3LKlCkEWAxEBHwUIMDyET+iRRNgRbRj/W4WAZbfPfBX+bqJafPmzeWLL77gIi443UJNEEAgggIaYr322mvmiWt60c6BAAL/FdDrwiVLlsi1115rLcDKlSuXbNq0yVp59DUCCJwsQIDFqHBbgADLbVHOd/xCRS9Wdu/ejUgABN566y3p16+f2USVAwEEEEDAGwENsPLkyWNmfVx88cXmxpk9sbyx5qzhE9D9OK+++mprgVL27Nlly5Yt4YOixghESIAAK0KdGZCmEGAFpCOiVg1mYAWnR53NS4cOHWoe9677UHAggAACCHgjoBfrN998s+gPB85Sbm9K4qwIhEtg2bJlJsDS/TltHBpg6Q93hMg2tCkDgVMLEGAxMtwWIMByW5TzGQECrOANhCNHjsirr75qnpS1Z8+e4FWQGiGAAAIREHBulp955hlp165dBFpEExBwR+DXX3+VO+64Q1asWOHOCdM4S44cOWT16tWif+dAAAF/BAiw/HGPcqkEWFHuXR/bRoDlI/5pitbHV48dO1Y6d+5MiBXMLqJWCCAQEYGcOXPK559/LuXKlYtIi2gGAhkT2LZtm3Tr1k3efffdjJ0owXfrwxSmTp0qlSpVSvAdvAwBBNwWIMByW5TzEWAxBjwRIMDyhNW1k3744YcyZ84cMyPLOZylhq4VwokQQACBGAtkypRJ6tatK2+//TZLmGI8Dmj6XwIHDhyQ8ePHS5s2baywZMmSxez/+cADD1gpj0IQQOBkAQIsRoXbAgRYbotyPiNAgBXsgaBLXHRj0/nz55up/MOHDzf/TogV7H6jdgggEB4B/Z7NnTu39OzZUxo3bhyeilNTBDwS0GuM2bNnyy233OJRCX8/bebMmeXBBx80IRYHAgj4I0CA5Y97lEslwIpy7/rYNgIsH/GTKNp5UqTuEaG/jOq/6+aqx44dS+IsvBQBBBDwVkC/mw4fPiwbN240wbs+zWzRokV/+65ynvgXpCBeL9wvv/xys4yJAwEExMz+vummm6z8YKafvwoVKsjMmTOhRwABnwQIsHyCj3CxBFgR7lw/m0aA5ad++svWGQMaXvHo9/Qb8k4EEHBfwAmlDh48KHv37pX9+/ebv+t/X79+vYwcOVKmT58u+/btC1wAny9fPmnatKk89dRT7sNwRgRCJKCf17lz50rt2rXNslqvw2Yto2jRovLDDz+ESImqIhAtAQKsaPVnEFpDgBWEXohgHQiwItipNAkBBBAIoIA+YVXDLA2vNMx64oknzA2rc3Ps94xSvYm+6qqrZNKkSaL7YnEgEGcBnYFVp04dK0GzfvYKFy4sP/30U5zJaTsCvgoQYPnKH8nCCbAi2a3+N4oAy/8+oAYIIIBAnAScGaS61FD/uvXWW2XBggVmWbTfh87Ceuihh+Tpp59mQ3e/O4PyfRXQGVgaYNn6XGqApUuOORBAwB8BAix/3KNcKgFWlHvXx7YRYPmIT9EIIIAAAqIXzTt27JBy5crJoUOHTKjl51GrVi0ZPXq06MbSHAjEVWDevHlSr1490eXANo5zzz1Xli9f7vlyRRttoQwEwihAgBXGXgt2nQmwgt0/oa0dAVZou46KI4AAApEQcPby0+Cqc+fO8v7778vOnTt9u5EtXry4Wd549913R8KXRiCQHgGdDaWzEX/++Wcrn0UNsJYtW5aeqvIeBBBwQYAAywVETvE3AQIsBoQnAgRYnrByUgQQQACBdAjoPllff/21tG3bVtauXWvO4PUG0idWU5c4NmzYUIYMGSJZsmRJRyt4CwLhF9CnHrdv315mzJhhpTEaYGlYpjfRtj/zVhpIIQgEXIAAK+AdFMLqEWCFsNPCUGUCrDD0EnVEAAEE4iOgm7kvWbJEmjVr5suSIr2Iv/LKK6V3795SsWLF+MDTUgRSCKxbt87sBacPNbBxMAPLhjJlIJC6AAEWo8NtAQIst0U5nxEgwGIgIIAAAggETUD/bNI9eHQGiC5lcv6sslVPnXnVsmVL6dKlC5u520KnnEAJ6JNCdfx/8MEHVuqlAZZ+1vUmmgMBBOwLEGDZN496iQRYUe9hn9pHgOUTPMUigAACCJxWQJcTTps2TZ555hlZs2aN1WVFuoxQ98Dq1auXnHHGGfQUArET2Lhxo3Tv3l3GjRtnpe0EWFaYKQSBVAUIsBgcbgsQYLktyvmMAAEWAwEBBBBAIKgC+nTCoUOHyuDBg2X//v3WqqkBVpkyZUx4VrduXWvlUhACQRHYsmWL9OnTR95++20rVdIA66effpJMmTJZKY9CEEDg7wIEWIwItwUIsNwW5XwEWIwBBBBAAIHAC/z4449mJsinn35qta56Mf/kk0/K448/brVcCkMgCAK///679O/fX0aMGGGlOgRYVpgpBIFUBQiwGBxuCxBguS3K+QiwGAMIIIAAAoEX0JnCH3/8sfTo0UNWrFhhrb46C0v3wercubPkzJnTWrkUhEAQBAiwgtAL1AEBewIEWPas41ISAVZcetpyO1lCaBmc4hBAAAEEkhbQpYT6RLTRo0db3QtLn0bYtWtXqVq1atJ15g0IhFlg8+bN0rdvX5YQhrkTqTsCSQgQYCWBxUsTEiDASoiJFyUrQICVrBivRwABBBDwQ2D69OkmTPrhhx+sFa8zr3QfoMaNG1srk4IQCILAhg0bzNLd8ePHW6mOs4RQb6J19iMHAgjYFSDAsusdh9IIsOLQyz60kQDLB3SKRAABBBBIWkA3cW/VqpVMnDjx+ANIkj5JOt6gs1CaN2+ejnfyFgTCK7B+/Xrp0qWLfPDBB1YaoQHWzz//THhlRZtCEDhZgACLUeG2AAGW26KczwgQYDEQEEAAAQSCLqB/VukxduxYs6xp7dq11qrcpk0beeyxx+TMM8+0ViYFIeC3wK+//moeYjB16lQrVSHAssJMIQikKkCAxeBwW4AAy21RzkeAxRhAAAEEEAiVwIEDB+S+++6Tzz77zFq9df+rnj17SpUqVayV6XdBKZdw6T8fO3bMzIxx/vvRo0dFb3acYNHv+lK++wLLly83Mx7nz59vpZ81wFq2bJn7DeGMCCCQkAABVkJMvCgJAQKsJLB4aeICzMBK3IpXIoAAAgj4K6BByv3332+eSqj/bOPInDmzDBkyRBo1amSjuECUoUHVkSNH5PPPP5cvv/zS7Du2a9cuKVOmjFSqVMmEiLly5QpEXamENwIaXDVo0EB2795NgOUNMWdFIFACBFiB6o5IVIYAKxLdGLxGEGAFr0+oEQIIIIDAqQU0WNFA5dFHH5VffvnFCpNe1A8dOlTuvPNOK+X5VYjOqjp8+LB89NFH8txzz8mqVatSrYr2g25wf/vtt0uPHj3MP2vQxxEdgTlz5kidOnWsBcXMwIrO2KEl4RQgwApnvwW51gRYQe6dENeNACvEnUfVEUAAgZgJOMvZbrrpJtEbbBuHljl48GC5++67I7vBtG6QP23aNHn++edl6dKlx1lTm+WWcvmgzsRq0qSJdOjQQfLkyWOWFnKEW0CvDefNm2cCLA02vT70M1a4cGH56aefzGeMpalei3N+BE4WIMBiVLgtQIDltijnMwIEWAwEBBBAAIGwCOifWXqDqzN/ZsyYYeXmWm2efvppadasmQloonboErHhw4ebfb7SGxxon9xyyy0mxNJlhlmyZIkaU+zaowGxBsXOtaLXAMWKFTNLVTkQQMAfAQIsf9yjXCoBVpR718e2EWD5iE/RCCCAAALpEnjxxRdF/9q5c2e63p/sm2644Qbp1auXlC5dOtm3Bvr16jdixAjp3bt3uoOKlBu+V69eXZ544gm57LLLWFIY6J4/feW0T7/55hszAyu9oWYyzdfyKlasKDNnzkzmbbwWAQRcFCDAchGTUxkBAiwGgicCBFiesHJSBBBAAAEPBVasWGE2VV+zZo2Hpfx16vPPP1+GDRsmV1xxhZXybBSydw4agaMAACAASURBVO9eE1517979+GxsN8rVmVjPPvuslCxZ0o3TcQ4fBHTpqD7p09aDCzJlyiRNmzaVPn36+NBaikQAARUgwGIcuC1AgOW2KOczAgRYDAQEEEAAgbAJ6J9dV1999d/2a/KyDXphP2bMGLnxxhu9LMbauZ3N2nVZpLPPlVszbXQ2zSOPPCKPPfaYnH322VZm8FiDi0lBuqxUA1tnZp7XzdYlp4MGDTL7zHEggIA/AgRY/rhHuVQCrCj3ro9tI8DyEZ+iEUAAAQTSLXDVVVdZC7A0lNEAq3bt2umub1DeqG3Ztm2bNGjQwOw55FZw5bRPb4K0jHfeecd46ewajnAJbNiwQR566CFrD0rIli2bWbLIrL1wjRNqGy0BAqxo9WcQWkOAFYReiGAdCLAi2Kk0CQEEEIiBgM7A0qeW2To0wHI2tbZVphfl6IyrcePGSYsWLVwPr7S+zp5YtWrVMvuUFSpUyItmcE4PBXSJ7nXXXSf79u3zsJS/Tp09e3bR0Cxz5sxWyqMQBBA4WYAAi1HhtgABltuinM8IEGAxEBBAAAEEwijw73//W/7zn/+ILoezcUQlwDp48KBce+21smzZMk/ZdObVV199JWXLlvW0HE7uvsDPP/8sOsPR7dl5qdVUA6zNmzcfDz/dbxFnRACBtAQIsNIS4v8nK0CAlawYr09IgAArISZehAACCCAQMIHnn39eBg4caGWWiM4qGjVqlJmBlfKpewEjSag6+/fvl/POO+/43lcJvSkdL9KbId2Uu3HjxqIBBUc4BPS6UJeW6gwsWwFWrly5ZOPGjeEAopYIRFSAACuiHetjswiwfMSPctEEWFHuXdqGAAIIRFNA/+zSQKlTp06iG07bOEaOHCl169YNfYCls9Z0s2yvwwkN+kqVKiWffPKJFChQwEYXUYYLAhpwvvrqq9KtWzfPx4hTXX3K58KFC12oPadAAIH0ChBgpVeO96UmQIDF2PBEgADLE1ZOigACCLgmoEGA7luU2swf/e9ehxGuNcbFE+mmz/fcc4/s2LHDxbOmfqo33nhDbrnlltBvSv7444/LiBEjPB8zOi51GeGPP/5o9sGK4xi1MjBdLmTr1q2i+5etWbPG5TOnfrqHH35Y+vfvb608CkIAgZMFCLAYFW4LEGC5Lcr5jAABFgMBAQQQCL7A3r17ZdGiRbJgwQKzZE6f2nXhhRfK5ZdfLvnz5w9+A1yuoYYja9eulRo1aojecNs4hg4dKrfffrtkzZrVRnGelVGzZk2ZP3++Z+d3Tqx9pH8tWbJEihYt6vmSRc8bFIMC9JpQP0+6b9nRo0ettfjLL7+Uiy++2Fp5FIQAAgRYjAHvBQiwvDeOZQkEWLHsdhqNAAIBFtBfQfW7+dChQ2ZWwujRo+XIkSOim2/rf9P/p8FAlixZTJiiT+7SGRO6nO7cc8+NzUyX7du3yxVXXCG///67ld584YUX5K677gr9fk4aeupT5mwd3bt3N0885AlztsTTX45+r+heVBdddJGV7xHnu27btm2hn9mYfnXeiUAwBJiBFYx+iFItCLCi1JsBagsBVoA6g6oggAAC/5sZ27dvXxkyZIgcOHDAhFepLRN0/ruGAxpo3XzzzaIzhfSfo37s2bNHLrvsMvntt988b6o69+vXT+69917JmTOn5+V5WYA+vXHy5MlWAgptR758+WTlypWhn7nmZZ8E5dz6XdO7d2/zcARbhy4z1TCaJaa2xCkHgVMLEGAxMtwWIMByW5TzGQECLAYCAgggEBwB3UC5cuXKsmnTpnTd0GnQohehq1evlrx584Z+w/HT9cyuXbukSpUqVgIsrYc+9VD33MqRI0dwBkw6aqLh6HPPPWd1SZ/O6tEnzXEEW0BneeoTKjXIsnHod5UGwhs2bLBRHGUggMBpBAiwGB5uCxBguS3K+QiwGAMIIIBAgAT0Jk43CXc2T9aN25M99AJUD11aOHXqVKlYsWJkQ6wtW7ZItWrVrO2B9dJLL0mjRo3M/mNhPnTJZenSpa01QcfkjBkzzFjkCLaAhsLFixdPV3ienpZp4P7EE0/Ik08+mZ638x4EEHBRgADLRUxOZQQIsBgInggwA8sTVk6KAAIIJCWwbt06ady4sSxevNi1mTFnn322fPDBB2Y/m9SeYJhUJQP0Ym3PwoULpUGDBmb5kY1Dn9xXv3790O/lpLNszjnnHBtkx8vQvco0UI3rEzOtYmegsJEjR0rr1q2tBVhaVV1eWrBgwQzUmrcigIAbAgRYbihyjpQCBFiMB08ECLA8YeWkCCCAQMICmzdvlubNm4s+iUuP9My8OrEwZ3PkCy64QMaPHy8lS5ZMuD5heeGoUaPMzI3du3dbqfK7774rdevWNUs0w3xogFW+fHlrM9ecpxHqzC82cg/2yDn//PNlx44d1iqpY0OXS4d9Wa41MApCwEMBAiwPcWN6agKsmHa8180mwPJamPMjgAACpxfQzcFfeeUVT24cdbnbTTfdJK+//roJXqIyE0v/7OrTp4+8/PLLovuG2Tj0aZBqGXbDo0ePSs+ePUWfqmjzmDBhgtSoUcNmkZSVhMDWrVulTJkyroXoiRRdtGhR+f7779ngPxEsXoOAxwIEWB4Dx/D0BFgx7HQbTSbAsqFMGQgggMCpBXT5TMeOHWXWrFmeLNvRsOUf//iHDBo0SK688srQhy+Oov7Zdccdd8j06dNFAxkbx5gxY0yAFYVj6dKlcvXVV3sy5lLzKVeunHz99deRGYNRGAdOG/R7olu3bsdDTa+fCOgsJe3Ro4e0bNky9LMaozQWaEt8BQiw4tv3XrWcAMsr2ZiflwAr5gOA5iOAgK8CAwYMMOGSbp7s1aHLtnTvpuHDh0cqPNAA5qeffvKK7W/n1RtuZwaWlQI9LET/3NcN8HVvNDeWqyZaVV0mNm/ePNFZNxzBE9B+sbUc11mGO3/+fNFli2Gf1Ri83qRGCCQvQICVvBnvOL0AARYjxBMBAixPWDkpAgggkKbA4cOHpXPnzvLaa695PhOmevXq8uabb8oZZ5yRZr3C8gKdUfbzzz9bqa7eYOsMrNq1a1spz8tC9M993fi+YcOGsmDBAi+L+tu5NUht0qSJ9O/f31qZFHR6AQ0w9aZ15syZZkbjoUOHrJDp5ylLlizmoRWFChWyUiaFIIDA6QUIsBghbgsQYLktyvmMAAEWAwEBBBDwR0DDly5dushnn33meYCle9voEqEoBDDaW7pfjy7n++WXX6x0noYvOgOrVq1aVsrzuhANKvQJlY888ojnYy9lWwoXLixLliyRTJkyed1Ezp+AgF4DapikMzR1GbPNGXn6+dW9//Lly5dATXkJAgh4LUCA5bVw/M5PgBW/PrfSYgIsK8wUggACCJwkMHbsWLOZ9oYNGzzX0eVbDz74oPTq1ctqYOFVw3Q21LPPPmvtSXply5Y1G8ZXrlzZqyZZP68GqLoM02ZokSdPHtNvDz/8sPX2UuDJAhpeLV++3DxdU0NhW4eWO27cOLn++ut5MqUtdMpBIA0BAiyGiNsCBFhui3I+I0CAxUBAAAEE/BHQp8Dpk/RsLdu58847zYyHKBz33nuvTJs2TXQZpo2jUaNG8tRTT0mxYsVsFGeljHXr1sk999xjZkTZOvQGqUqVKjJ16lT2PbKFnkY5GmxPmjTJ2mdJq6Mz8L766ivRYJgDAQSCIUCAFYx+iFItCLCi1JsBagsBVoA6g6oggECsBJ577jnp27evtRkwug+W7j+kTyUM86F/btWpU0e+/fZba83o16+f3H///ZItWzZrZXpd0IEDB2TChAnSqlUrq7PyzjnnHOnatavcddddXjeR86choLOu9LOkT0O1eejyQQ3wzz33XJvFUhYCCJxGgACL4eG2AAGW26KczwgQYDEQEEAAAX8ENEzSAOvo0aNWKpA3b15p27attG/f3kp5XhUyY8YM04bVq1d7VcRJ5x06dKjoDDbn6WnWCva4oG+++cYsH3OuBzwuzpxeN+++9tpr5f3337dRHGWcRqBp06Zm9pWGmbYO54meup8ce6HZUqccBNIWIMBK24hXJCdAgJWcF69OUIAAK0EoXoYAAgi4LDBx4kTp0aOHtSBGbxybN29uli2G9dA/s3TJ00cffWQt+NOL+mHDhpmntKlhlI4VK1ZI69atZe7cuVabpZu565LMu+++O3KmViHTWZjzJEod099//306z5L82/SzpJ+hKVOmyBVXXJH8CXgHAgh4JkCA5RltbE9MgBXbrve24QRY3vpydgQQQCA1gWXLlpmnEH766adWlnDpjaNu2q1l6j5EYTyOHDkiuv+V7qFk6yhatKgMHDhQbrjhBltFWitHZ//pDJwHHnjAyhh0GqZjUZeujRw5kgDLWm//VZD6N27c2PS9zU38nXKffPJJlg/60O8UicDpBAiwGB9uCxBguS3K+YwAARYDAQEEEPBHQG8c9UZu+PDh1iqgF6hPPPGEPP7446ELDvTmd9CgQfLSSy/Jtm3brJnpXk3aT8WLF7dWps2CNEDVmVAaDto8zjrrLGnZsqW0a9fOZrGxLsuZQahPoNTlxLZn3un3z6hRo0T3wOJAAIFgCRBgBas/olAbAqwo9GIA20CAFcBOoUoIIBAbAV1GpcvTbM2C0BtYDSuefvppKVSoUKicdZ8e3XD8gw8+sOrVu3dvs/QyassHnc7XpxFqG8eOHWt1POjNUr169UwgmS9fPqtlx7kw/Ry1adPGbOBva/89x1uf4qnfdzoTlAMBBIIlQIAVrP6IQm0IsKLQiwFsAwFWADuFKiGAQCwE9Pv3lVdeMcvT9Glgtg69SO3Zs6c0a9YsVJsojx492mx6r4GLrSNr1qxmzzDddyuqh47D9957T1q0aGECDf13W0fmzJnNOOzWrZvoP3N4K6B9qwGwBparVq3ytrATzq4BsD55VZcu6ueKAwEEgiVAgBWs/ohCbQiwotCLAW2D/vK/e/fugNaOaiGAAALRFVizZo106NBBvvjiC2uN1BtJ3by5U6dOUqJECWvlZqQgDfh0ttr48eMzcpqk31uhQgUTrlSvXj3p94blDRpqfPXVV2Y8/Pjjj1arrWPxmmuuMcaXXnqp1bLjWNimTZvkmWeeMSGWzaBSrXXJ6Isvvmhm3XEggEDwBPSpoLlz5w5exahRaAUIsELbdcGvOAFW8PuIGiKAQPQEnCVpujxNl2/ZuqHUcvWX1q5du5qZRTlz5gw0rrq88cYbZibUH3/8YcVJjZynNmqwkydPnkAbZbRyuv/V0KFDzQb/tsahU2d11o35dVnrueeea738jNqF5f0HDx40sz11Hzn9Z5v9rH18zz33mP339KEIHAggEDwBnRmZI0eO4FWMGoVWgAArtF0X/IrrRcyuXbuCX1FqiAACCERIwAmwNJjRpYQ7d+601jotu1KlSvL8888HeuaL1lM3nO7evbt58qCtvcK0I3RJm27erjPk4nBMnjzZhEhr16612lzt4/z588uzzz5rQg6WEnrDP2fOHBNa699tHzqrQ7/n7rvvPttFUx4CCCQgoN/D2bJlM39xIOCWAAGWW5Kc5yQBDbB0CaHNX+PoBgQQQACB/wo4TwSbN2+eVZIwPNJ+8+bNJmTTGVi2/4wqU6aMCVXq1q1rtV/8Kkxnt+neSH5Y61jUZZoasOiyTQ73BNRW97vq1auXL0sHtSU33HCDmd1Xvnx59xrGmRBAwDUB/Z7Q2VdZsmRx7ZycCAECLMaAZwJ6U7B3717rT6PxrEGcGAEEEAiRgH4H68yT//znP1ZDGmeZnM4y0mWMefPmDZSaPi1t0qRJJkTasmWL1bo5S570pj9OT8jTjfK1zbpXku3AUM0bNmxo9jorXry41f6OcmE6w3748OHSv39/s3TQ9qE3xPod0759e9tFUx4CCCQooN+/ulQ+qk/bTZCBl7ksQIDlMiin+0tAL1L1osaPCxv6AQEEEIi7gH4H6w3mgAED5Pfff7fOUbhwYbMvjs6ACcryLTVZvHix2TNn7ty51k10yVPbtm2lY8eO1sv2s0A/N/nWdusMAA2w/v3vfwcuUPWzX9Jbti65/eabb0x4tHz58vSeJt3vY5P+dNPxRgSsChBgWeWOTWEEWLHpan8aevjwYdm3b58/hVMqAgggEHOBbdu2SaNGjWTBggW+zHzRJ8DpJt6lS5f2/RdYvZD+5ZdfpF27djJ79mxfPKpVqyb9+vWTsmXLxm5k6hJCna2js978mIVVsmRJefnll+Xyyy8XfSoWR/oE9HO0YsUKefTRR02IZbsvtdYaiOvsTt3DTh8cwYEAAsEViNNs4+D2QrRqRoAVrf4MXGuOHj0qe/bsCVy9qBACCCAQBwG92dQZP+PHj/flxwQtv2rVqmb/I52R5eexYcMGefjhh83MK73ptn3jraHJHXfcIUOGDInlTbcGVxoe2l7SqmNOx6H2twaqb775JksJM/BB1Nl0LVu2NCGwzsSy/TnSql9zzTUmCL7ooosy0BLeigACXgswA8tr4XienwArnv1urdUEWNaoKQgBBBA4pcCvv/4qDRo0kNWrV/sipDMkKlasaIKD888/3/oNr95g60biug+SLh+0+cTBlOC6eXu3bt2kdu3avvRDEArVIFOXtPqxF5YTZOlTMjXQLViwoPWxGIQ+SG8d9HOkP0jq0zM/+OADOXLkiHU/vRnWva90bz8dR8y+Sm9v8j4E7Ajo5zVnzpx2CqOU2AgQYMWmq/1pqN4o6AWPH7/Q+dNiSkUAAQSCJaDfwxqazJ8/35fwxtm8VZcR9uzZU2rWrGl1OeFvv/0m9erVM8sH9fArwNInpr3zzjtmP6a4Hrrx9/333y/Tp0/3hUDHooYelStXNhv582j3xLtBf5B84YUXZODAgaIPQvDjc+TsffXKK6/Ieeedl3jleSUCCPgioPs+6ncum7j7wh/ZQgmwItu1wWiYXuDoJu6HDh0KRoWoBQIIIBBDgbVr15pHzuueWH7ceCq5XsCeddZZUrduXbO5u/PDhhcXtnpuvWh+9913zT45W7du9fWHlCJFiphNxO+6664Yjr6/mqz98tFHH0mXLl1k3bp1vvVJ1qxZ5Z///Ke89957ZpzwI1vqw1K/L3T568cff2z2ndq9e7cvY1j7ScPfu+++2+ylxoEAAsEX0KcQe/FnfPBbTg29FCDA8lKXc5uLQv3Vbu/evWgggAACCPgg4Oz3pPv/aJDl9826bsCsG2m/9tprUqhQIU8ubvWmW/fJ0VlX+jARP9usF+9XXnmlCQDivuRJ+0H75l//+pd8++23voapOg5vuukmeeutt2LfL6f7WtI+mzNnjtSvX9/8IOnXZ0k/O/q9oZ8jXZbkVz18+AqnSARCJ6CfT/2zjw3cQ9d1oagwAVYouinclUwZYHHBEe6+pPYIIBBegZ07d5qn3+3fvz8QjciePbuZkaTLCnUpl87ySM8vtU5Ap8GI7svz3HPPyeuvvy5//vlnINp5zjnnmDbqHlwc/xXQfdluu+02WbVqla8kOhNL94d76aWXzBjkGuWv7nDCxnnz5hkjv783ChQoIB07dpRmzZr5OmYoHAEEEhPQHwly5cqV2It5FQJJCBBgJYHFS9MnoAHWvn37zEys9NycpK9U3oUAAgggkFJAv3+vvfZaWbRoUSBgnNlIGhw0adJEHnroIdHlBnny5BENFtL680JvsHV2lS5p0j15dH8pDa62b9/u28yeE2G1jVWqVJFPP/2UcCQFjvadbsStLho6+nXoGNOxpjPCnn/+eWYLpOgInW31xRdfSOvWrWXHjh2+fqb0c6SzGKdMmeLXUKFcBBBIQkC/WzW80h+mOBBwW4AAy21RzneSgF6o6h5YeoPBgQACCCDgn4AGPhdccIFZ1u3XXlinar0TVumT+h588EGpWrXq8RBLb16dQEvrr4GH1l1/FFm4cKGMGDFClixZEriASOudP39+GT16tFn6xPF3Ae2/atWqybJly3wfi7q3kj5coG/fvqL7lcV5JpZ+FnWvvIkTJ0q/fv3M/nF+HzqLUZcOlipVyu+qUD4CCCQowP5XCULxsqQFCLCSJuMN6RHQmw6dhcWBAAIIIOCPgLOxuS7D0ZlKGiAE5dCbZv3rxI3d9b/pU4w0VNBfcrds2SJ//PGHCTyc1zt7bWhbghQ8aH1r1aolo0aNYo+lEwaaMxbffvtt6dChg+8PenGeTqiB2oABA6RkyZJB+WhYr4durj948GAZN26c6FMj/f5M6TIkXX6rTx4M2mfceudQIAIhEdDPbc6cOdOcSR2S5lDNgAkQYAWsQ6JaHf3FXGdgBemGKarWtAsBBBA4nYDOiNUnEi5evBgoDwU0dNP9g/QiniN1AX2q3CeffBIIIg2yNMTq0aOH2S9OZ/7F5dCgSmfD9enTRz777DNzzeZ3eKX2lSpVkunTp3MjHJeBSDsjIaB/7unDFjgQ8EKAAMsLVc55kgDLCBkUCCCAQHAEZsyYIXfccYfZQ4rDXQFnOaSGILp/UBBCAHdb6N7Z1Epn+VxxxRWyceNG906czjM5faf7lulS1n/+85/mSZlRPrTNuqRY98bTfcBmzpxpmuv3EmNnVtyHH35oQkUOBBAIh4AzczruT90NR2+Fs5YEWOHst9DVWi/gdRaWPsWGi/nQdR8VRgCBiAns2bNHnnrqKbPxOd/J7nauXrTrkqdXX331b8si3S0lWmd78803pX379r6HJilVNbiqW7euNG3aVHRvtih+TvRGU58IOWnSJLPnle4pF5R26udI7fWpojwEKFqfd1oTbQGduapPGU7rQSzRVqB1XgoQYHmpy7n/JqC/5umUdH7xZ2AggAAC/gvojJc2bdqYJ41xZFzAuVgvVqyYebqebjydcl+vjJcQ3TNoQKGBqrPPUVBaqiFKnTp15M477zRP8NQnZEbl0KXEuoxYg9apU6eKhtpBGK/Ofng33nijvPXWW+ZGOCihWlT6nnYg4KWAPn1Q98DiQMArAQIsr2Q57ykF9LHMPI2QwYEAAgj4L6A/Jmh4pcvc9Klj3CRmrE+cJU8vvfSS6L5O/PqcnKc+7a5x48byzTffJPdGj1+t/Vi6dGnzJEndcF4DyrD3rVoPGTJEvvvuO/n2228DNfNNQ8MzzzxTxowZI5UrV+YBCB6Pb06PgJsCGlzpU11ZPuimKuc6UYAAizFhVUCXEWqIpX/nQAABBBDwV2DHjh1mBoYu03ECLIKs9PWJhhrPPPOMPPLII+YCniM5Ab0u0JlrDz/88PGnFgdlLDqBVY0aNaRcuXLy9NNPS7Zs2Y4/DTO5ltp/tTOzSmfC66wm3RRdw+ugbNTuiDizr3QjeQ0z1TjsYaH93qZEBPwTYPN2/+zjVDIBVpx6OwBt1YtRDbD0Lw4EEEAAAf8Ffv/9dxk0aJAMGzbMhFhBCQ38l0muBs2aNZMnnnhC8ufPn9wbefVxAV3G9vbbb5uAKKjjMHfu3HLllVeav9q2bSuZMmUKRQ9OnjxZRo0aJUuWLJHNmzcH7rPuhFdPPvmk6GcpX758oXClkggg8F8B/S50Zl8RPDMqvBQgwPJSl3OfUkB/ZdVf/XTPCw4EEEAAAf8FdCPnvn37ytixY/2vTAhroPsj9erVy8zOYelExjpQZwXqXlgpZwVm7IzevPuss86SsmXLmicV6gb02u8p95Dy8wZOwz+nLhMmTJAxY0bLqlWrzYbtQT20vrfccot07dpVihcvzsyroHYU9UIgFQENr7JkycJnlxHiuQABlufEFHAqAX0aoW4gyoEAAggg4L+A/qCwYMECE8LMnDnT/wqFqAa6J1K/fv2kZs2a5uKdI2MCGr788ssv0rNnT/noo48ydjKP362hlc4UKly4sFxyySWis4eKFi1qZjf5FWBpuXqNpbMqdXP2TZs2ie55pYcuIQzqUaRIERk4cKBcf/31bAAd1E6iXgikIqCzr/SBC2zezhCxIUCAZUOZMk4S0JslvcDSi6mgLhOg2xBAAIE4Cejs2I8//tjMxFq+fDnfzQl0/hlnnCG6X8/tt99OeJWAV6Iv0WuEadOmSefOnWXt2rWhGIv66HgdDxpm6T5et912m7mh08OLp/udGJLpv2v4/PLLL8vSpUtl165d5jorDNdYGvzqjLt77rlH1JEDAQTCJaDfdfrZ9Su4D5cWtc2oAAFWRgV5f7oFmIWVbjreiAACCHgi4Gzy/Pzzz5uZGxypC+gG0927d5eHHnro+PIxvNwT0LH4xhtvmI3x9XohLIfewGkgozMSdHaWPpFS93Q655xzXG2ClrNz504zS23EiBGyatUqszWDPl00yDOtTkTQdvTo0UOaN29uboDZh8/VYcLJEPBcQL/v9M9DZxm15wVSQOwFCLBiPwT8A9CLFL0o1YstDgQQQACBYAjoRejQoUPNEqQtW7aEYgaHbTl90pIuF2vdujW/OHuIr9cJL7zwgpkVqNcKYZhNdCoO/Uxp3TXUatCggeieaTfeeKPoOHL2TDtxlpbTVv3vGkhp+xcuXCiTJk2S0aNHm4fhhNXDMdIb344dO0qHDh3YO87DzxGnRsBLAd37ipmTXgpz7pN++Ph/Yf/Tjz4NrYDzRELdC4thGNpupOIIIBAxAedGevjw4TJkyBBZv359qGZ0eNkdanPmmWdKmzZt5NFHH/WyqNif21mKotcHvXv3NkvjwjQTK2UHOk/YSzkzyvmcOeHWiUtvnJlIKf+7vjbl1gteLE20NfB0yVGTJk3MMtG8efOaYrkWtKVPOQi4I6DBlTP7yp0zchYE0hZgBlbaRrzCQwFmYXmIy6kRQACBDAjo9/MHH3wgL730kvz000+ie2TF+dDZM7pBd9OmTaVly5bccFscDLo0rlu3bmZJ4Z49eyyWTFFeCOjMM33ioC4P1T3DOBBAIHwC+meihlc8vCR8fRf2GhNghb0HI1B/Z0N3/TsHXSuP9QAAIABJREFUAggggECwBBYtWiRdunSRr776yuyxE8dDL9IrVqxoZozcddddx5cNMmPEzmjQmUb79u0zIdbIkSMJseywe1KKLjfS5ZNPPfWUlCpVypMyOCkCCHgroN/JOvvKeVCFt6VxdgT+LkCAxYgIhIDu5RCF/RwCgUklEEAAAZcFduzYYZbM6VMK4/T0WF2ypb8u62wRnXWlIRaHPwLaF7ppuW6cP3bsWEIsf7ohQ6VqeFW9enWzbLB8+fIZOhdvRgABfwQ0vMqcObMJr5w9/PypCaXGVYAAK649H7B2O0sJdYkKv2gHrHOoDgIIIPA/AQ1xZs6cefwJhVH/vs6TJ495ipwudcqdOzfjIAACf/75p9kT65133pEDBw5wzRCAPkmkCjpbQ2detW/fXi655BLTbyfu+5XIeXgNAgj4K6BLBzW80hCLAwE/BAiw/FCnzFMK6K/6ukFr3PdZYXgggAACQRXQJYQaHEyfPl2mTJkS2c3d9ca6WrVqcs0115inpHGjHZwRqX2xa9cu6d+/vwwbNownGQena1Ktid7o6tMXdRZnuXLlQlBjqogAAqcS0BlXzsbtCCHglwABll/ylHtKAQ2vdJ+LqP+qT/cjgAACYRXQHxvWrl1rnlA4efJk2bp1q/nOjsL3trOvh27UrjfclSpVCms3Rb7eOvtKn0zYp08f09aUT/iLfOND1sCHHnpIWrVqJcWLFycMDlnfUV0EHAH981H3g9QAix91GBd+ChBg+alP2acUOHToEMsCGBsIIIBAgAX04vWPP/6Qzz//XKZNmyYTJ04MdYjlXIzXq1dPrr76arn33nvNksEohHIBHkYZqpr2mc4IHDp0qHTt2pXZ2xnS9ObN2kedOnUyDz8oWLCgN4VwVgQQsCKg+0HqPnaEV1a4KeQ0AgRYDI9ACuiG7vrrKgcCCCCAQHAFNOBZvXq1fPrpp/LRRx/J3LlzzcVtGGZkpbwIr1ChgtSvX1/q1KkjJUuWFN3jw2lHcPWpmQpoiPX6669Ljx49ZPfu3aAERECXGvXq1Uvuv/9+c9PLgQAC4RTQPwv186yfY/2zkQMBvwUIsPzuAco/ScC58dGZWBpkcSCAAAIIBFtAf3BYsWKFfPXVV/Luu+/K8uXLA7+kSy/IS5QoYTZpv/7666VMmTKSK1euYENTu1MK6LWCBqgvvPCC/Pzzzyj5LKCfo549e8o999xjlhwxk9HnDqF4BDIgoH9W5syZk/AqA4a81V0BAix3PTmbiwK6n4VelGqQxYEAAgggEHyBvXv3mv2xFi1aZDbZXrNmzfHlBn7fxOpFuFOHUqVKyQMPPGCWCxYrVkzy5csXfFxqeFoBvV5YuHChCVDHjBkTilmAUelSZzajfr4qVqwo7dq1M08c1Bkbfn/uo2JMOxCwLeB8rp3wiqWDtnuA8lITIMBibARagBAr0N1D5RBAAIFTCmiYsHnzZrOkS2di6F5ZutTLz0P376hcubI8/fTTct5555k9eZhx5WePuF+2jrHt27ebJ2X27t3b9zHnfguDe0YNiB988EGzZFADYmZeBbevqBkCiQhoYKV/RuqyQQ2iCbASUeM1NgQIsGwoU0aGBAixMsTHmxFAAAHfBPSid+fOnWYm7cqVK6Vjx45meaFzMezMznBjloZeXDv7VjkX2vrnx1lnnWX2R9JlghpinXnmmWY/D47oCuiS1lGjRknfvn1l27ZtzALyqKudz5x+np588klp1qyZueHl8+UROKdFwJKAfrZ15lXmzJktlUgxCCQuQICVuBWv9FFAb0LYE8vHDqBoBBBAIJ0CTjilN7U6M0tnyaxbt04GDhwokyZNMv9Nv+Mzejihlf69YcOG0qFDBylatKgJL3Q2iJbPxuwZVQ7P+3Wc6b5s3bt3l6lTpxJiedB1+nm68MILzZMG9QEI3Ox6gMwpEbAswMwry+AUl7QAAVbSZLzBLwEnxNIgy41f6/1qB+UigAACCPxdQPfO0g3gp0+fLjNmzJBNmzaZUOtUM7ScJyLpGXQpoO5jVatWLbnqqqskb968LHNgcJ0koAGLzsjScaZjyo3ANM7M+hnMmjWr3HbbbSaIZq+rOI8G2h4VAefPVp155cyujErbaEe0BAiwotWfsWiNLg3g6YSx6GoaiQACMRBIOSsq5WbQTtM1bHCWJKW2D4cTdLFHRwwGTJJNdMbPd999J126dJEFCxaYawh+CEsS8n8v11lWpUuXNssFGzdunL6T8C4EEAicgH62s2fPzp5XgesZKnSiAAEWYyJ0AnrRqbOwDh8+zAatoes9KowAAggggIA/Anr9oHs1ffnll2Z54ZEjR/ypSAhL1RC5SJEi5imDr732mlmWy4EAAuEX0B9+dH9IZ6l9+FtEC6IuQIAV9R6OcPs0wNIgiwvQCHcyTUMAAQQQQMBlgR07dkiTJk1k/fr1smrVKpfPHr3T6RM7y5UrJ507d5YrrrjCLMFktmP0+pkWxUvAWSaoy4E1wGLZYLz6P8ytJcAKc+9Rd3MRpUsBNMxiOQADAgEEEEAAAQTSEnCWos6aNUuGDBkiy5YtM2EW1xF/yenNbL58+eTSSy+VmjVrSosWLXgIQloDi/+PQEgE9POdKVMms5edhlccCIRJgAArTL1FXVMVcEIsfeoQBwIIIIAAAgggkJpAyidj7t+/Xz744APzpMKFCxfKhg0bYh1k6Y2tPgxBH4qgywU1uMqTJ8/f9qFjZCGAQHgFnIcwaHjl7C8Z3tZQ8zgKEGDFsdcj2mZdSqgzsfTvPGEoop1MsxBAAAEEEPBAQJcVTpkyRb7++muZO3eurF692oNSgntKvak9++yzjwdXd955p5x77rnBrTA1QwCBpAV0tpVu1q7hFQcCYRUgwAprz1HvVAWcfbE0zOJAAAEEEEAAAQTSEtAAR3/82r59u8yePdvMxpoxY4b89NNPf9vzKUrLDJ19rEqUKCHXXnutVKpUSWrUqGE2a+dAAIHoCOhyQQ2uNMDSf+ZAIMwCBFhh7j3qnqqALiXUmVjOX1AhgAACCCCAAAKJCGiws2/fPpkzZ44sX77czMiaPn267N69OxIzvHXZkD5xrEqVKnLjjTeKBlhVq1aVAgUKJMLDaxBAICQC+ll3lgqy11VIOo1qpinw/9u7YxW76zyMw6dUFFTEC9BCsRFvwHvQe/DKbGy9AVsrbcXWTsRKBLVbfgf/ErK7vBvY5ONknkCIu3zJm3kygTOfOWdGwJpEDh6ygJD1kP/2/NkJECBAgEArcJ5xdb5T4Xkm1nl21pdffnn77rvvbufxxQld//RnZD353QLPf5+XBX7++ef3aPXee+/dPvroo/vXwXkIb0v7nmCdwMMRuL7O1fXMK9819OH83fmTbgEBaxu5eOAC58HleVnAebB5fY2sB/4m+eMTIECAAAECL1jgPKv7+++/v/3000/3Z2N98cUX95cbnh//1JB1PnB9//33/45Wr7766u3jjz++vf766y9YzxwBAs9b4ApX5+WCJ14JV89b3O9fCAhYhbrNTOCErPPz+jpZ1wNOn3nM/koMEyBAgACBBydwYtaPP/54++WXX26//fbb7Ztvvrl99dVX9y/+/vRji/MY4/oaW//vN/TJD1DP7vnfb7755v1rWX366ae3d9555x6r3n333dtrr732jw1t/28Xvx+BxyRwYtV5qeD59XpG5WN6+72tj0tAwHpcf9/e2r8+S3o9uDzPyvrjjz/+fikAIAIECBAgQIDA/ypwPlg8MetErPMSw99///3+bO9vv/32/l0Nz8sNf/311/tv9zy+Q/Irr7xy+/DDD2+fffbZ/TsInlh1nn3xxhtv3N566637f/tBgMDLJ3A92+p8basrknvG1cv39+wt+ncBAct7xaMXODHr/Lxi1vN4gPnokQEQIECAAIFHInAeU5xnep+Y9eeff/4dr87jjPPyw6+//vr+63kG1w8//HD7+eef7zdPvgzx+kD0hKgPPvjg/vWq3n777dsnn3xy/9/XF2Q+d+e/z0sDT8zyAewjeSfzZj4KgadfIXL9ez/fhOH6t+7f/KN4V/BGPiEgYHl3IPCXwJMPHE/EOp9BPQ9A/6lf18JfHAECBAgQIPAwBK6X950PNs/ji+uxxXm88fTjjOsD0uv/v14SdH49P8+P8+v1CTgfwD6M9wF/SgLPKnD+bZ+XBZ5gdX69fvg3/6yS7l8mAQHrZfrb9LY8N4HrC8Gflwmcn+ezqE9/pvR6cPrc/hB+YwIvQECwfQHIJggQIECAAIFHK/D01667ovT1xdfPr9fLAh8tkjecwH8RELC8axB4BoErUv2nz5YKWM8A6ZQAAQIECBAgQIDAIxR4+uOJJ591+eTLBj3T6hG+c3iTp4CANYkcECBAgAABAgQIECBAgAABAgQIlAICVqlvmwABAgQIECBAgAABAgQIECBAYAoIWJPIAQECBAgQIECAAAECBAgQIECAQCkgYJX6tgkQIECAAAECBAgQIECAAAECBKaAgDWJHBAgQIAAAQIECBAgQIAAAQIECJQCAlapb5sAAQIECBAgQIAAAQIECBAgQGAKCFiTyAEBAgQIECBAgAABAgQIECBAgEApIGCV+rYJECBAgAABAgQIECBAgAABAgSmgIA1iRwQIECAAAECBAgQIECAAAECBAiUAgJWqW+bAAECBAgQIECAAAECBAgQIEBgCghYk8gBAQIECBAgQIAAAQIECBAgQIBAKSBglfq2CRAgQIAAAQIECBAgQIAAAQIEpoCANYkcECBAgAABAgQIECBAgAABAgQIlAICVqlvmwABAgQIECBAgAABAgQIECBAYAoIWJPIAQECBAgQIECAAAECBAgQIECAQCkgYJX6tgkQIECAAAECBAgQIECAAAECBKaAgDWJHBAgQIAAAQIECBAgQIAAAQIECJQCAlapb5sAAQIECBAgQIAAAQIECBAgQGAKCFiTyAEBAgQIECBAgAABAgQIECBAgEApIGCV+rYJECBAgAABAgQIECBAgAABAgSmgIA1iRwQIECAAAECBAgQIECAAAECBAiUAgJWqW+bAAECBAgQIECAAAECBAgQIEBgCghYk8gBAQIECBAgQIAAAQIECBAgQIBAKSBglfq2CRAgQIAAAQIECBAgQIAAAQIEpoCANYkcECBAgAABAgQIECBAgAABAgQIlAICVqlvmwABAgQIECBAgAABAgQIECBAYAoIWJPIAQECBAgQIECAAAECBAgQIECAQCkgYJX6tgkQIECAAAECBAgQIECAAAECBKaAgDWJHBAgQIAAAQIECBAgQIAAAQIECJQCAlapb5sAAQIECBAgQIAAAQIECBAgQGAKCFiTyAEBAgQIECBAgAABAgQIECBAgEApIGCV+rYJECBAgAABAgQIECBAgAABAgSmgIA1iRwQIECAAAECBAgQIECAAAECBAiUAgJWqW+bAAECBAgQIECAAAECBAgQIEBgCghYk8gBAQIECBAgQIAAAQIECBAgQIBAKSBglfq2CRAgQIAAAQIECBAgQIAAAQIEpoCANYkcECBAgAABAgQIECBAgAABAgQIlAICVqlvmwABAgQIECBAgAABAgQIECBAYAoIWJPIAQECBAgQIECAAAECBAgQIECAQCkgYJX6tgkQIECAAAECBAgQIECAAAECBKaAgDWJHBAgQIAAAQIECBAgQIAAAQIECJQCAlapb5sAAQIECBAgQIAAAQIECBAgQGAKCFiTyAEBAgQIECBAgAABAgQIECBAgEApIGCV+rYJECBAgAABAgQIECBAgAABAgSmgIA1iRwQIECAAAECBAgQIECAAAECBAiUAgJWqW+bAAECBAgQIECAAAECBAgQIEBgCghYk8gBAQIECBAgQIAAAQIECBAgQIBAKSBglfq2CRAgQIAAAQIECBAgQIAAAQIEpoCANYkcECBAgAABAgQIECBAgAABAgQIlAICVqlvmwABAgQIECBAgAABAgQIECBAYAoIWJPIAQECBAgQIECAAAECBAgQIECAQCkgYJX6tgkQIECAAAECBAgQIECAAAECBKaAgDWJHBAgQIAAAQIECBAgQIAAAQIECJQCAlapb5sAAQIECBAgQIAAAQIECBAgQGAKCFiTyAEBAgQIECBAgAABAgQIECBAgEApIGCV+rYJECBAgAABAgQIECBAgAABAgSmgIA1iRwQIECAAAECBAgQIECAAAECBAiUAgJWqW+bAAECBAgQIECAAAECBAgQIEBgCghYk8gBAQIECBAgQIAAAQIECBAgQIBAKSBglfq2CRAgQIAAAQIECBAgQIAAAQIEpoCANYkcECBAgAABAgQIECBAgAABAgQIlAICVqlvmwABAgQIECBAgAABAgQIECBAYAoIWJPIAQECBAgQIECAAAECBAgQIECAQCkgYJX6tgkQIECAAAECBAgQIECAAAECBKaAgDWJHBAgQIAAAQIECBAgQIAAAQIECJQCAlapb5sAAQIECBAgQIAAAQIECBAgQGAKCFiTyAEBAgQIECBAgAABAgQIECBAgEApIGCV+rYJECBAgAABAgQIECBAgAABAgSmgIA1iRwQIECAAAECBAgQIECAAAECBAiUAgJWqW+bAAECBAgQIECAAAECBAgQIEBgCghYk8gBAQIECBAgQIAAAQIECBAgQIBAKSBglfq2CRAgQIAAAQIECBAgQIAAAQIEpoCANYkcECBAgAABAgQIECBAgAABAgQIlAICVqlvmwABAgQIECBAgAABAgQIECBAYAoIWJPIAQECBAgQIECAAAECBAgQIECAQCkgYJX6tgkQIECAAAECBAgQIECAAAECBKaAgDWJHBAgQIAAAQIECBAgQIAAAQIECJQCAlapb5sAAQIECBAgQIAAAQIECBAgQGAKCFiTyAEBAgQIECBAgAABAgQIECBAgEApIGCV+rYJECBAgAABAgQIECBAgAABAgSmgIA1iRwQIECAAAECBAgQIECAAAECBAiUAgJWqW+bAAECBAgQIECAAAECBAgQIEBgCghYk8gBAQIECBAgQIAAAQIECBAgQIBAKSBglfq2CRAgQIAAAQIECBAgQIAAAQIEpoCANYkcECBAgAABAgQIECBAgAABAgQIlAICVqlvmwABAgQIECBAgAABAgQIECBAYAoIWJPIAQECBAgQIECAAAECBAgQIECAQCkgYJX6tgkQIECAAAECBAgQIECAAAECBKaAgDWJHBAgQIAAAQIECBAgQIAAAQIECJQCAlapb5sAAQIECBAgQIAAAQIECBAgQGAKCFiTyAEBAgQIECBAgAABAgQIECBAgEApIGCV+rYJECBAgAABAgQIECBAgAABAgSmgIA1iRwQIECAAAECBAgQIECAAAECBAiUAgJWqW+bAAECBAgQIECAAAECBAgQIEBgCghYk8gBAQIECBAgQIAAAQIECBAgQIBAKSBglfq2CRAgQIAAAQIECBAgQIAAAQIEpoCANYkcECBAgAABAgQIECBAgAABAgQIlAICVqlvmwABAgQIECBAgAABAgQIECBAYAoIWJPIAQECBAgQIECAAAECBAgQIECAQCkgYJX6tgkQIECAAAECBAgQIECAAAECBKaAgDWJHBAgQIAAAQIECBAgQIAAAQIECJQCAlapb5sAAQIECBAgQIAAAQIECBAgQGAKCFiTyAEBAgQIECBAgAABAgQIECBAgEApIGCV+rYJECBAgAABAgQIECBAgAABAgSmgIA1iRwQIECAAAECBAgQIECAAAECBAiUAgJWqW+bAAECBAgQIECAAAECBAgQIEBgCghYk8gBAQIECBAgQIAAAQIECBAgQIBAKSBglfq2CRAgQIAAAQIECBAgQIAAAQIEpoCANYkcECBAgAABAgQIECBAgAABAgQIlAICVqlvmwABAgQIECBAgAABAgQIECBAYAoIWJPIAQECBAgQIECAAAECBAgQIECAQCkgYJX6tgkQIECAAAECBAgQIECAAAECBKaAgDWJHBAgQIAAAQIECBAgQIAAAQIECJQCAlapb5sAAQIECBAgQIAAAQIECBAgQGAKCFiTyAEBAgQIECBAgAABAgQIECBAgEApIGCV+rYJECBAgAABAgQIECBAgAABAgSmgIA1iRwQIECAAAECBAgQIECAAAECBAiUAgJWqW+bAAECBAgQIECAAAECBAgQIEBgCghYk8gBAQIECBAgQIAAAQIECBAgQIBAKSBglfq2CRAgQIAAAQIECBAgQIAAAQIEpoCANYkcECBAgAABAgQIECBAgAABAgQIlAICVqlvmwABAgQIECBAgAABAgQIECBAYAoIWJPIAQECBAgQIECAAAECBAgQIECAQCkgYJX6tgkQIECAAAECBAgQIECAAAECBKaAgDWJHBAgQIAAAQIECBAgQIAAAQIECJQCAlapb5sAAQIECBAgQIAAAQIECBAgQGAKCFiTyAEBAgQIECBAgAABAgQIECBAgEApIGCV+rYJECBAgAABAgQIECBAgAABAgSmgIA1iRwQIECAAAECBAgQIECAAAECBAiUAgJWqW+bAAECBAgQIECAAAECBAgQIEBgCghYk8gBAQIECBAgQIAAAQIECBAgQIBAKSBglfq2CRAgQIAAAQIECBAgQIAAAQIEpoCANYkcECBAgAABAgQIECBAgAABAgQIlAICVqlvmwABAgQIECBAgAABAgQIECBAYAoIWJPIAQECBAgQIECAAAECBAgQIECAQCkgYJX6tgkQIECAAAECBAgQIECAAAECBKaAgDWJHBAgQIAAAQIECBAgQIAAAQIECJQCAlapb5sAAQIECBAgQIAAAQIECBAgQGAKCFiTyAEBAgQIECBAgAABAgQIECBAgEApIGCV+rYJECBAgAABAgQIECBAgAABAgSmgIA1iRwQIECAAAECBAgQIECAAAECBAiUAgJWqW+bAAECBAgQIECAAAECBAgQIEBgCghYk8gBAQIECBAgQIAAAQIECBAgQIBAKSBglfq2CRAgQIAAAQIECBAgQIAAAQIEpoCANYkcECBAgAABAgQIECBAgAABAgQIlAICVqlvmwABAgQIECBAgAABAgQIECBAYAoIWJPIAQECBAgQIECAAAECBAgQIECAQCkgYJX6tgkQIECAAAECBAgQIECAAAECBKaAgDWJHBAgQIAAAQIECBAgQIAAAQIECJQCAlapb5sAAQIECBAgQIAAAQIECBAgQGAKCFiTyAEBAgQIECBAgAABAgQIECBAgEApIGCV+rYJECBAgAABAgQIECBAgAABAgSmgIA1iRwQIECAAAECBAgQIECAAAECBAiUAgJWqW+bAAECBAgQIECAAAECBAgQIEBgCghYk8gBAQIECBAgQIAAAQIECBAgQIBAKSBglfq2CRAgQIAAAQIECBAgQIAAAQIEpoCANYkcECBAgAABAgQIECBAgAABAgQIlAICVqlvmwABAgQIECBAgAABAgQIECBAYAoIWJPIAQECBAgQIECAAAECBAgQIECAQCkgYJX6tgkQIECAAAECBAgQIECAAAECBKaAgDWJHBAgQIAAAQIECBAgQIAAAQIECJQCAlapb5sAAQIECBAgQIAAAQIECBAgQGAKCFiTyAEBAgQIECBAgAABAgQIECBAgEApIGCV+rYJECBAgAABAgQIECBAgAABAgSmgIA1iRwQIECAAAECBAgQIECAAAECBAiUAgJWqW+bAAECBAgQIECAAAECBAgQIEBgCghYk8gBAQIECBAgQIAAAQIECBAgQIBAKSBglfq2CRAgQIAAAQIECBAgQIAAAQIEpoCANYkcECBAgAABAgQIECBAgAABAgQIlAICVqlvmwABAgQIECBAgAABAgQIECBAYAoIWJPIAQECBAgQIECAAAECBAgQIECAQCkgYJX6tgkQIECAAAECBAgQIECAAAECBKaAgDWJHBAgQIAAAQIECBAgQIAAAQIECJQCAlapb5sAAQIECBAgQIAAAQIECBAgQGAKCFiTyAEBAgQIECBAgAABAgQIECBAgEApIGCV+rYJECBAgAABAgQIECBAgAABAgSmgIA1iRwQIECAAAECBAgQIECAAAECBAiUAgJWqW+bAAECBAgQIECAAAECBAgQIEBgCghYk8gBAQIECBAgQIAAAQIECBAgQIBAKSBglfq2CRAgQIAAAQIECBAgQIAAAQIEpoCANYkcECBAgAABAgQIECBAgAABAgQIlAICVqlvmwABAgQIECBAgAABAgQIECBAYAoIWJPIAQECBAgQIECAAAECBAgQIECAQCkgYJX6tgkQIECAAAECBAgQIECAAAECBKaAgDWJHBAgQIAAAQIECBAgQIAAAQIECJQCAlapb5sAAQIECBAgQIAAAQIECBAgQGAKCFiTyAEBAgQIECBAgAABAgQIECBAgEApIGCV+rYJECBAgAABAgQIECBAgAABAgSmgIA1iRwQIECAAAECBAgQIECAAAECBAiUAgJWqW+bAAECBAgQIECAAAECBAgQIEBgCghYk8gBAQIECBAgQIAAAQIECBAgQIBAKSBglfq2CRAgQIAAAQIECBAgQIAAAQIEpoCANYkcECBAgAABAgQIECBAgAABAgQIlAICVqlvmwABAgQIECBAgAABAgQIECBAYAoIWJPIAQECBAgQIECAAAECBAgQIECAQCkgYJX6tgkQIECAAAECBAgQIECAAAECBKaAgDWJHBAgQIAAAQIECBAgQIAAAQIECJQCAlapb5sAAQIECBAgQIAAAQIECBAgQGAKCFiTyAEBAgQIECBAgAABAgQIECBAgEApIGCV+rYJECBAgAABAgQIECBAgAABAgSmgIA1iRwQIECAAAECBAgQIECAAAECBAiUAgJWqW+bAAECBAgQIECAAAECBAgQIEBgCghYk8gBAQIECBAgQIAAAQIECBAgQIBD60G2AAARj0lEQVRAKSBglfq2CRAgQIAAAQIECBAgQIAAAQIEpoCANYkcECBAgAABAgQIECBAgAABAgQIlAICVqlvmwABAgQIECBAgAABAgQIECBAYAoIWJPIAQECBAgQIECAAAECBAgQIECAQCkgYJX6tgkQIECAAAECBAgQIECAAAECBKaAgDWJHBAgQIAAAQIECBAgQIAAAQIECJQCAlapb5sAAQIECBAgQIAAAQIECBAgQGAKCFiTyAEBAgQIECBAgAABAgQIECBAgEApIGCV+rYJECBAgAABAgQIECBAgAABAgSmgIA1iRwQIECAAAECBAgQIECAAAECBAiUAgJWqW+bAAECBAgQIECAAAECBAgQIEBgCghYk8gBAQIECBAgQIAAAQIECBAgQIBAKSBglfq2CRAgQIAAAQIECBAgQIAAAQIEpoCANYkcECBAgAABAgQIECBAgAABAgQIlAICVqlvmwABAgQIECBAgAABAgQIECBAYAoIWJPIAQECBAgQIECAAAECBAgQIECAQCkgYJX6tgkQIECAAAECBAgQIECAAAECBKaAgDWJHBAgQIAAAQIECBAgQIAAAQIECJQCAlapb5sAAQIECBAgQIAAAQIECBAgQGAKCFiTyAEBAgQIECBAgAABAgQIECBAgEApIGCV+rYJECBAgAABAgQIECBAgAABAgSmgIA1iRwQIECAAAECBAgQIECAAAECBAiUAgJWqW+bAAECBAgQIECAAAECBAgQIEBgCghYk8gBAQIECBAgQIAAAQIECBAgQIBAKSBglfq2CRAgQIAAAQIECBAgQIAAAQIEpoCANYkcECBAgAABAgQIECBAgAABAgQIlAICVqlvmwABAgQIECBAgAABAgQIECBAYAoIWJPIAQECBAgQIECAAAECBAgQIECAQCkgYJX6tgkQIECAAAECBAgQIECAAAECBKaAgDWJHBAgQIAAAQIECBAgQIAAAQIECJQCAlapb5sAAQIECBAgQIAAAQIECBAgQGAKCFiTyAEBAgQIECBAgAABAgQIECBAgEApIGCV+rYJECBAgAABAgQIECBAgAABAgSmgIA1iRwQIECAAAECBAgQIECAAAECBAiUAgJWqW+bAAECBAgQIECAAAECBAgQIEBgCghYk8gBAQIECBAgQIAAAQIECBAgQIBAKSBglfq2CRAgQIAAAQIECBAgQIAAAQIEpoCANYkcECBAgAABAgQIECBAgAABAgQIlAICVqlvmwABAgQIECBAgAABAgQIECBAYAoIWJPIAQECBAgQIECAAAECBAgQIECAQCkgYJX6tgkQIECAAAECBAgQIECAAAECBKaAgDWJHBAgQIAAAQIECBAgQIAAAQIECJQCAlapb5sAAQIECBAgQIAAAQIECBAgQGAKCFiTyAEBAgQIECBAgAABAgQIECBAgEApIGCV+rYJECBAgAABAgQIECBAgAABAgSmgIA1iRwQIECAAAECBAgQIECAAAECBAiUAgJWqW+bAAECBAgQIECAAAECBAgQIEBgCghYk8gBAQIECBAgQIAAAQIECBAgQIBAKSBglfq2CRAgQIAAAQIECBAgQIAAAQIEpoCANYkcECBAgAABAgQIECBAgAABAgQIlAICVqlvmwABAgQIECBAgAABAgQIECBAYAoIWJPIAQECBAgQIECAAAECBAgQIECAQCkgYJX6tgkQIECAAAECBAgQIECAAAECBKaAgDWJHBAgQIAAAQIECBAgQIAAAQIECJQCAlapb5sAAQIECBAgQIAAAQIECBAgQGAKCFiTyAEBAgQIECBAgAABAgQIECBAgEApIGCV+rYJECBAgAABAgQIECBAgAABAgSmgIA1iRwQIECAAAECBAgQIECAAAECBAiUAgJWqW+bAAECBAgQIECAAAECBAgQIEBgCghYk8gBAQIECBAgQIAAAQIECBAgQIBAKSBglfq2CRAgQIAAAQIECBAgQIAAAQIEpoCANYkcECBAgAABAgQIECBAgAABAgQIlAICVqlvmwABAgQIECBAgAABAgQIECBAYAoIWJPIAQECBAgQIECAAAECBAgQIECAQCkgYJX6tgkQIECAAAECBAgQIECAAAECBKaAgDWJHBAgQIAAAQIECBAgQIAAAQIECJQCAlapb5sAAQIECBAgQIAAAQIECBAgQGAKCFiTyAEBAgQIECBAgAABAgQIECBAgEApIGCV+rYJECBAgAABAgQIECBAgAABAgSmgIA1iRwQIECAAAECBAgQIECAAAECBAiUAgJWqW+bAAECBAgQIECAAAECBAgQIEBgCghYk8gBAQIECBAgQIAAAQIECBAgQIBAKSBglfq2CRAgQIAAAQIECBAgQIAAAQIEpoCANYkcECBAgAABAgQIECBAgAABAgQIlAICVqlvmwABAgQIECBAgAABAgQIECBAYAoIWJPIAQECBAgQIECAAAECBAgQIECAQCkgYJX6tgkQIECAAAECBAgQIECAAAECBKaAgDWJHBAgQIAAAQIECBAgQIAAAQIECJQCAlapb5sAAQIECBAgQIAAAQIECBAgQGAKCFiTyAEBAgQIECBAgAABAgQIECBAgEApIGCV+rYJECBAgAABAgQIECBAgAABAgSmgIA1iRwQIECAAAECBAgQIECAAAECBAiUAgJWqW+bAAECBAgQIECAAAECBAgQIEBgCghYk8gBAQIECBAgQIAAAQIECBAgQIBAKSBglfq2CRAgQIAAAQIECBAgQIAAAQIEpoCANYkcECBAgAABAgQIECBAgAABAgQIlAICVqlvmwABAgQIECBAgAABAgQIECBAYAoIWJPIAQECBAgQIECAAAECBAgQIECAQCkgYJX6tgkQIECAAAECBAgQIECAAAECBKaAgDWJHBAgQIAAAQIECBAgQIAAAQIECJQCAlapb5sAAQIECBAgQIAAAQIECBAgQGAKCFiTyAEBAgQIECBAgAABAgQIECBAgEApIGCV+rYJECBAgAABAgQIECBAgAABAgSmgIA1iRwQIECAAAECBAgQIECAAAECBAiUAgJWqW+bAAECBAgQIECAAAECBAgQIEBgCghYk8gBAQIECBAgQIAAAQIECBAgQIBAKSBglfq2CRAgQIAAAQIECBAgQIAAAQIEpoCANYkcECBAgAABAgQIECBAgAABAgQIlAICVqlvmwABAgQIECBAgAABAgQIECBAYAoIWJPIAQECBAgQIECAAAECBAgQIECAQCkgYJX6tgkQIECAAAECBAgQIECAAAECBKaAgDWJHBAgQIAAAQIECBAgQIAAAQIECJQCAlapb5sAAQIECBAgQIAAAQIECBAgQGAKCFiTyAEBAgQIECBAgAABAgQIECBAgEApIGCV+rYJECBAgAABAgQIECBAgAABAgSmgIA1iRwQIECAAAECBAgQIECAAAECBAiUAgJWqW+bAAECBAgQIECAAAECBAgQIEBgCghYk8gBAQIECBAgQIAAAQIECBAgQIBAKSBglfq2CRAgQIAAAQIECBAgQIAAAQIEpoCANYkcECBAgAABAgQIECBAgAABAgQIlAICVqlvmwABAgQIECBAgAABAgQIECBAYAoIWJPIAQECBAgQIECAAAECBAgQIECAQCkgYJX6tgkQIECAAAECBAgQIECAAAECBKaAgDWJHBAgQIAAAQIECBAgQIAAAQIECJQCAlapb5sAAQIECBAgQIAAAQIECBAgQGAKCFiTyAEBAgQIECBAgAABAgQIECBAgEApIGCV+rYJECBAgAABAgQIECBAgAABAgSmgIA1iRwQIECAAAECBAgQIECAAAECBAiUAgJWqW+bAAECBAgQIECAAAECBAgQIEBgCghYk8gBAQIECBAgQIAAAQIECBAgQIBAKSBglfq2CRAgQIAAAQIECBAgQIAAAQIEpoCANYkcECBAgAABAgQIECBAgAABAgQIlAICVqlvmwABAgQIECBAgAABAgQIECBAYAoIWJPIAQECBAgQIECAAAECBAgQIECAQCkgYJX6tgkQIECAAAECBAgQIECAAAECBKaAgDWJHBAgQIAAAQIECBAgQIAAAQIECJQCAlapb5sAAQIECBAgQIAAAQIECBAgQGAKCFiTyAEBAgQIECBAgAABAgQIECBAgEApIGCV+rYJECBAgAABAgQIECBAgAABAgSmgIA1iRwQIECAAAECBAgQIECAAAECBAiUAgJWqW+bAAECBAgQIECAAAECBAgQIEBgCghYk8gBAQIECBAgQIAAAQIECBAgQIBAKSBglfq2CRAgQIAAAQIECBAgQIAAAQIEpoCANYkcECBAgAABAgQIECBAgAABAgQIlAICVqlvmwABAgQIECBAgAABAgQIECBAYAoIWJPIAQECBAgQIECAAAECBAgQIECAQCkgYJX6tgkQIECAAAECBAgQIECAAAECBKaAgDWJHBAgQIAAAQIECBAgQIAAAQIECJQCAlapb5sAAQIECBAgQIAAAQIECBAgQGAKCFiTyAEBAgQIECBAgAABAgQIECBAgEApIGCV+rYJECBAgAABAgQIECBAgAABAgSmgIA1iRwQIECAAAECBAgQIECAAAECBAiUAgJWqW+bAAECBAgQIECAAAECBAgQIEBgCghYk8gBAQIECBAgQIAAAQIECBAgQIBAKSBglfq2CRAgQIAAAQIECBAgQIAAAQIEpoCANYkcECBAgAABAgQIECBAgAABAgQIlAICVqlvmwABAgQIECBAgAABAgQIECBAYAoIWJPIAQECBAgQIECAAAECBAgQIECAQCkgYJX6tgkQIECAAAECBAgQIECAAAECBKaAgDWJHBAgQIAAAQIECBAgQIAAAQIECJQCAlapb5sAAQIECBAgQIAAAQIECBAgQGAKCFiTyAEBAgQIECBAgAABAgQIECBAgEApIGCV+rYJECBAgAABAgQIECBAgAABAgSmgIA1iRwQIECAAAECBAgQIECAAAECBAiUAgJWqW+bAAECBAgQIECAAAECBAgQIEBgCghYk8gBAQIECBAgQIAAAQIECBAgQIBAKSBglfq2CRAgQIAAAQIECBAgQIAAAQIEpoCANYkcECBAgAABAgQIECBAgAABAgQIlAICVqlvmwABAgQIECBAgAABAgQIECBAYAoIWJPIAQECBAgQIECAAAECBAgQIECAQCkgYJX6tgkQIECAAAECBAgQIECAAAECBKaAgDWJHBAgQIAAAQIECBAgQIAAAQIECJQCAlapb5sAAQIECBAgQIAAAQIECBAgQGAKCFiTyAEBAgQIECBAgAABAgQIECBAgEApIGCV+rYJECBAgAABAgQIECBAgAABAgSmgIA1iRwQIECAAAECBAgQIECAAAECBAiUAgJWqW+bAAECBAgQIECAAAECBAgQIEBgCghYk8gBAQIECBAgQIAAAQIECBAgQIBAKSBglfq2CRAgQIAAAQIECBAgQIAAAQIEpoCANYkcECBAgAABAgQIECBAgAABAgQIlAICVqlvmwABAgQIECBAgAABAgQIECBAYAoIWJPIAQECBAgQIECAAAECBAgQIECAQCkgYJX6tgkQIECAAAECBAgQIECAAAECBKaAgDWJHBAgQIAAAQIECBAgQIAAAQIECJQCAlapb5sAAQIECBAgQIAAAQIECBAgQGAKCFiTyAEBAgQIECBAgAABAgQIECBAgEApIGCV+rYJECBAgAABAgQIECBAgAABAgSmgIA1iRwQIECAAAECBAgQIECAAAECBAiUAgJWqW+bAAECBAgQIECAAAECBAgQIEBgCghYk8gBAQIECBAgQIAAAQIECBAgQIBAKSBglfq2CRAgQIAAAQIECBAgQIAAAQIEpoCANYkcECBAgAABAgQIECBAgAABAgQIlAICVqlvmwABAgQIECBAgAABAgQIECBAYAoIWJPIAQECBAgQIECAAAECBAgQIECAQCkgYJX6tgkQIECAAAECBAgQIECAAAECBKbAvwCVTNV0iktbeQAAAABJRU5ErkJggg==;" vertex="1" parent="1">
          <mxGeometry x="110" y="50" width="80" height="80" as="geometry" />
        </mxCell>
      </root>
    </mxGraphModel>
  </diagram>
</mxfile>
